<?xml version="1.0" standalone="no"?>
<!DOCTYPE svg PUBLIC "-//W3C//DTD SVG 20010904//EN"
 "http://www.w3.org/TR/2001/REC-SVG-20010904/DTD/svg10.dtd">
<svg version="1.0" xmlns="http://www.w3.org/2000/svg"
 width="260.000000pt" height="260.000000pt" viewBox="0 0 260.000000 260.000000"
 preserveAspectRatio="xMidYMid meet">
<metadata>
Created by potrace 1.11, written by Peter Selinger 2001-2013
</metadata>
<g transform="translate(0.000000,260.000000) scale(0.100000,-0.100000)"
fill="#000000" stroke="none">
<path d="M803 2310 c-118 -72 -81 -244 55 -258 89 -8 152 48 152 138 0 111
-114 177 -207 120z"/>
<path d="M1894 2096 c-48 -21 -74 -61 -74 -113 0 -38 5 -50 34 -79 29 -29 41
-34 79 -34 53 0 93 27 114 77 38 92 -62 189 -153 149z"/>
<path d="M1295 2004 c-79 -41 -109 -93 -103 -179 3 -50 10 -70 32 -100 53 -69
143 -92 222 -56 78 36 118 120 100 215 -19 101 -159 168 -251 120z"/>
<path d="M655 1774 c-55 -19 -109 -66 -143 -122 -24 -41 -27 -57 -27 -132 0
-64 5 -95 19 -124 106 -214 420 -197 503 27 6 18 12 61 12 98 2 186 -185 317
-364 253z"/>
<path d="M2055 1692 c-75 -48 -107 -120 -86 -194 15 -51 36 -79 82 -107 42
-26 117 -28 166 -5 112 54 124 222 21 295 -45 32 -141 38 -183 11z"/>
<path d="M1658 1442 c-38 -23 -61 -75 -54 -117 20 -105 142 -135 212 -52 23
27 26 38 21 81 -3 40 -11 55 -36 78 -37 33 -99 38 -143 10z"/>
<path d="M1016 1029 c-21 -16 -26 -29 -26 -64 0 -35 5 -48 26 -64 46 -36 106
-24 132 26 18 33 14 59 -14 92 -31 38 -78 41 -118 10z"/>
<path d="M455 1006 c-37 -16 -82 -68 -91 -102 -11 -42 2 -110 26 -144 65 -91
211 -84 270 12 25 41 26 117 4 164 -33 69 -134 103 -209 70z"/>
<path d="M1745 721 c-72 -32 -105 -131 -67 -200 36 -66 133 -91 199 -51 75 45
85 153 20 217 -29 29 -44 36 -84 39 -26 2 -57 0 -68 -5z"/>
<path d="M1194 661 c-64 -29 -97 -81 -102 -155 -4 -72 15 -114 72 -161 34 -27
45 -30 106 -30 61 0 72 3 107 31 54 44 76 86 76 148 0 81 -39 139 -115 171
-49 20 -94 19 -144 -4z"/>
</g>
</svg>
