<?xml version="1.0" standalone="no"?>
<!DOCTYPE svg PUBLIC "-//W3C//DTD SVG 1.1//EN" "http://www.w3.org/Graphics/SVG/1.1/DTD/svg11.dtd" >
<svg xmlns="http://www.w3.org/2000/svg">
<metadata></metadata>
<defs>
<font id="modeliaheavy" horiz-adv-x="1245" >
<font-face units-per-em="2048" ascent="1536" descent="-512" />
<missing-glyph horiz-adv-x="874" />
<glyph horiz-adv-x="0" />
<glyph horiz-adv-x="682" />
<glyph unicode=" "  horiz-adv-x="874" />
<glyph unicode="&#x09;" horiz-adv-x="874" />
<glyph unicode="&#xa0;" horiz-adv-x="874" />
<glyph unicode="!" horiz-adv-x="653" d="M141 145q0 17 2 23q57 92 136 139t157 47q74 0 121 -46t47 -132q0 -91 -47 -196q-104 -35 -186 -35q-63 0 -110.5 20t-72 51.5t-36 64t-11.5 64.5zM227 635q0 123 78 459q43 186 264 186q107 0 236 -35q-154 -289 -248 -782q-104 -17 -158 -17q-90 0 -131 42t-41 147z " />
<glyph unicode="&#x22;" horiz-adv-x="985" d="M199 752q0 30 19.5 140t38.5 205l19 95q83 37 177 37q103 0 151.5 -33t48.5 -84q0 -43 -65.5 -200.5t-77.5 -229.5q-19 -15 -67.5 -28t-98.5 -13q-81 0 -113 27t-32 84zM713 752q0 30 19.5 140t39.5 205l19 95q83 37 176 37q103 0 151.5 -33t48.5 -84q0 -43 -65.5 -200.5 t-77.5 -229.5q-19 -15 -67.5 -28t-98.5 -13q-81 0 -113 27t-32 84z" />
<glyph unicode="#" horiz-adv-x="1220" d="M59 340q0 51 19.5 103t35 76t23.5 32q15 -9 152 -19h2l45 154h-105q-53 0 -53 64q0 46 18 94.5t33.5 72.5t24.5 33q108 -12 149 -12h5l43 160q9 38 14.5 57t15.5 38t18.5 26t27.5 13t38.5 6.5t55.5 0.5q60 0 103.5 -17t43.5 -46l-80 -238h160q61 186 84 281 q3 12 17.5 19.5t45 10.5t49 3.5t58.5 0.5q56 0 81 -22.5t25 -67.5q0 -71 -67 -225h108q17 0 17 -33q0 -21 -4 -57q-6 -36 -13 -54t-29 -38t-66 -31.5t-118 -19.5l-75 -177h182q10 0 17 -16t7 -39q0 -32 -12 -62t-38.5 -58t-78 -45.5t-120.5 -18.5h-48v-4q-17 -42 -35 -90.5 t-26.5 -72.5t-20.5 -51.5t-21 -39t-24.5 -22.5t-34 -14t-46.5 -3q-49 0 -86.5 15.5t-43.5 47.5q13 55 76 230l-145 -2l-2 -7q-11 -30 -26 -72.5t-21 -60.5t-17.5 -45.5t-17.5 -37t-18.5 -24.5t-22 -18.5t-27 -9.5t-35.5 -7t-45 -1q-71 0 -79 49l65 232q-94 0 -126 11.5 t-32 47.5zM547 530h153q57 150 60 160q-22 0 -75.5 -1t-84.5 -1z" />
<glyph unicode="$" horiz-adv-x="1185" d="M76 264q0 102 52 165t99 63q28 -15 78.5 -60.5t99.5 -76.5t99 -31q63 0 63 32q0 15 -27 39t-67 50t-87 64t-87 78.5t-67 96.5t-27 115q0 74 28.5 140t78 116t111 86.5t132.5 60.5l4 25q23 155 31 192q76 6 133 6q201 0 201 -41l-27 -153q153 -15 264 -72q17 -56 17 -94 q0 -103 -68.5 -174.5t-138.5 -71.5q-55 0 -130.5 30t-99.5 30q-57 0 -57 -41q0 -22 39 -52t94 -67t110.5 -83t94.5 -115.5t39 -149.5q0 -139 -110.5 -243.5t-291.5 -139.5l-24 -152q-31 -8 -111 -8q-109 0 -150.5 29.5t-41.5 124.5v10q-119 29 -187.5 101t-68.5 171z" />
<glyph unicode="%" horiz-adv-x="1634" d="M104 838q0 85 41 162.5t102.5 129t131.5 81.5t129 30q53 0 84 -27t31 -79q0 -33 -15 -74q-25 10 -63 10q-56 0 -96.5 -39t-56 -84.5t-15.5 -85.5q0 -39 18 -39q29 0 65.5 63.5t49.5 139.5q51 10 104 10q152 0 152 -100q0 -77 -57 -154.5t-155 -129.5t-204 -52 q-122 0 -184 67t-62 171zM217 86q0 38 48.5 100.5t139.5 152t196 192t244 254.5t257 305q101 114 203 114q85 0 130.5 -39t71.5 -112q-115 -76 -524 -525t-469 -546q-158 7 -227.5 32.5t-69.5 71.5zM932 229q0 92 60 179t161 141.5t211 54.5q133 0 193.5 -63t60.5 -166 q0 -89 -41 -183.5t-111.5 -159.5t-146.5 -65q-60 0 -119 33q76 78 137.5 174t61.5 158q0 67 -86 67q-31 -8 -62.5 -57t-31.5 -94q0 -39 38 -53q-21 -99 -59.5 -145t-87.5 -46q-68 0 -123 69t-55 156z" />
<glyph unicode="&#x26;" horiz-adv-x="1388" d="M-10 315q0 66 26.5 125.5t75.5 109t104.5 88t127.5 77.5q-48 111 -48 198q0 179 154.5 295.5t388.5 116.5q153 0 239.5 -68.5t86.5 -175.5q0 -40 -13 -78.5t-40.5 -75t-55.5 -66.5t-74.5 -66t-80 -59.5t-88.5 -59.5q72 -93 141 -162q122 177 151 340q32 0 109.5 3.5 t192 17.5t149.5 36q14 0 22.5 -36t8.5 -82q0 -116 -75.5 -196.5t-148.5 -80.5q-18 0 -30 6q-43 -125 -115 -229q237 -167 412 -201q-4 -34 -12 -67.5t-29.5 -77.5t-51.5 -77t-83 -56t-119 -23q-166 0 -438 223q-191 -88 -416 -88q-107 0 -197.5 33.5t-149.5 88t-91.5 124 t-32.5 143.5zM432 315q0 -36 21.5 -62t60.5 -26q55 0 119 23q-88 102 -150 188q-51 -60 -51 -123zM659 971q0 -33 13 -80q112 68 112 133q0 47 -47 47q-36 0 -57 -27.5t-21 -72.5z" />
<glyph unicode="'" horiz-adv-x="516" d="M199 752q0 30 19.5 140t38.5 205l19 95q83 37 177 37q103 0 151.5 -33t48.5 -84q0 -43 -65.5 -200.5t-77.5 -229.5q-19 -15 -67.5 -28t-98.5 -13q-81 0 -113 27t-32 84z" />
<glyph unicode="(" horiz-adv-x="970" d="M274 342q0 142 25 285t76.5 274t122.5 232t170.5 161t212.5 60q181 0 258 -115q-37 -27 -85 -81t-104.5 -144t-102.5 -194.5t-77 -243.5t-31 -279q0 -162 28 -314t62 -192q-20 -30 -63 -47.5t-94 -17.5q-127 0 -218.5 82t-135.5 219.5t-44 314.5z" />
<glyph unicode=")" horiz-adv-x="970" d="M57 -162q33 10 82.5 67.5t102.5 151t99 204t75.5 241t29.5 246.5q0 163 -28 317.5t-60 194.5q47 49 109.5 71.5t120.5 22.5q95 0 164 -50t107.5 -140.5t56.5 -201.5t18 -249q0 -176 -45.5 -351t-125.5 -317t-202 -230.5t-262 -88.5q-160 0 -242 112z" />
<glyph unicode="*" horiz-adv-x="1030" d="M137 1040q0 43 14.5 78t37.5 56.5t52 36t57 20.5t54 6q81 0 176 -86q0 66 -15.5 132t-43.5 101q25 35 80 54.5t115 19.5q96 0 144 -49.5t48 -116.5q0 -68 -72 -149l213 162q74 -18 108 -67.5t34 -102.5q0 -68 -67 -128t-175 -89q120 -23 203 -29q12 -43 12 -80 q0 -50 -22 -90t-55.5 -62.5t-68 -34.5t-63.5 -12q-72 0 -114.5 28t-65.5 91q-16 -39 -16 -92q0 -79 22 -119q-61 -45 -133 -45q-86 0 -126 50.5t-40 127.5q0 54 12 78q-37 -34 -75.5 -82t-53.5 -80q-88 4 -131 45t-43 97q0 42 19 79t55 67.5t66.5 50.5t74.5 44 q-68 6 -207 15q-10 45 -10 75z" />
<glyph unicode="+" horiz-adv-x="950" d="M80 465q0 43 16 64.5t73 35.5t173 19q63 199 80 280q88 21 147 21q90 0 125 -27t35 -90q0 -38 -31 -178h107q96 0 96 -111q0 -48 -27 -139q-112 -4 -243 -10q-36 -151 -41 -242q-32 -15 -78 -27t-78 -12q-39 0 -65 6.5t-50 24.5t-35.5 56t-11.5 97q0 28 4 86 q-41 -2 -79 -2q-55 0 -86 43.5t-31 104.5z" />
<glyph unicode="," horiz-adv-x="731" d="M104 -172q0 33 2 41q74 0 121 30t47 68q-28 -8 -61 -8q-57 0 -79.5 28.5t-22.5 86.5q0 46 17.5 89t52 80.5t96.5 60t143 22.5q105 0 165 -53t60 -167q0 -81 -35 -154.5t-90.5 -123.5t-125 -79.5t-138.5 -29.5q-80 0 -116 27t-36 82z" />
<glyph unicode="-" horiz-adv-x="770" d="M76 494q0 44 14 92q44 7 270.5 19.5t303.5 12.5q22 0 38.5 -35.5t16.5 -90.5q0 -39 -14 -65t-36 -41t-66.5 -22.5t-87.5 -9.5t-116 -2q-323 0 -323 142z" />
<glyph unicode="." horiz-adv-x="665" d="M115 160q8 32 29 67.5t56.5 72t93 60t126.5 23.5q86 0 174 -35q2 -16 2 -51q0 -152 -75.5 -238t-178.5 -86q-78 0 -140 47.5t-87 139.5z" />
<glyph unicode="/" horiz-adv-x="888" d="M55 68q0 67 74 202.5t181.5 291.5t216 313t191 299t93.5 217q132 -24 190 -61.5t58 -94.5q0 -66 -74.5 -207.5t-182 -303t-216 -319.5t-187.5 -288t-84 -178q-128 0 -194 34t-66 95z" />
<glyph unicode="0" horiz-adv-x="1218" d="M18 451q0 204 103.5 352.5t265.5 204.5q19 111 123 186.5t293 75.5q48 0 99 -13.5t106 -47t97 -83.5t69.5 -131.5t27.5 -181.5q0 -150 -43 -282t-115.5 -227.5t-165.5 -165t-195.5 -104t-203.5 -34.5q-221 0 -341 123.5t-120 327.5zM463 453q0 -41 15.5 -69t43.5 -28 q57 0 107.5 95.5t50.5 183.5q0 66 -21 127q-101 -52 -148.5 -134t-47.5 -175z" />
<glyph unicode="1" horiz-adv-x="1073" d="M2 88q0 133 71.5 216t172.5 83h41q12 144 47 301q-16 -2 -47 -2q-81 0 -118.5 51t-37.5 129q0 93 37 162q202 32 340 121q42 64 86 102q87 35 248 35q64 0 121 -49.5t57 -120.5q0 -113 -94 -207q-121 -266 -121 -473q0 -27 2 -41l137 4q24 0 51 -35t27 -81 q0 -130 -88.5 -210.5t-212.5 -80.5q-49 0 -252.5 11t-302.5 11q-116 0 -156 -12q-8 39 -8 86z" />
<glyph unicode="2" horiz-adv-x="1124" d="M4 178q0 103 73.5 184.5t198.5 81.5q26 0 60 -6q223 231 223 367q0 19 -1 29.5t-10 22t-26 11.5q-58 0 -84 -157q-90 -47 -157 -47q-83 0 -123.5 60.5t-40.5 152.5q0 51 18.5 105t60.5 108.5t101.5 97t149.5 69.5t196 27q126 0 222.5 -34.5t151 -91t81 -119.5t26.5 -130 q0 -146 -89.5 -289t-243.5 -266q25 -2 79 -2q109 0 222 17q18 -61 18 -113q0 -74 -35.5 -133.5t-93 -95t-123.5 -54t-133 -18.5q-106 0 -313 84q-104 -49 -228 -49q-86 0 -133 54t-47 134z" />
<glyph unicode="3" horiz-adv-x="1128" d="M39 203q0 90 41 135t104 45q84 -51 150 -51q63 0 106.5 24t53.5 72q-16 -4 -52 -4q-67 0 -103 37t-36 98q0 99 66 141.5t188 42.5q49 40 70 95q-50 -11 -234 -11q-116 0 -161.5 37.5t-45.5 132.5q0 62 20.5 129t53.5 119q49 -8 111 -8q42 0 185.5 9t260.5 9 q83 0 141.5 -8t96 -23t58 -40.5t28.5 -55.5t8 -73q0 -80 -70.5 -192t-181.5 -214q135 -96 135 -250q0 -134 -76 -238.5t-207 -160t-294 -55.5q-194 0 -305 63.5t-111 194.5z" />
<glyph unicode="4" horiz-adv-x="1239" d="M47 543q0 89 69.5 349.5t69.5 311.5q66 72 226 72q92 0 161.5 -28.5t69.5 -73.5q0 -50 -57.5 -238.5t-57.5 -243.5q0 -51 56 -51q26 0 47 8q34 136 86.5 314t56.5 196q62 84 236 84q85 0 160 -20t94 -47q-30 -79 -138.5 -573t-109.5 -574q-17 -35 -107.5 -53.5 t-179.5 -18.5q-184 0 -184 149q0 104 22 242q-123 -45 -229 -45q-148 0 -219.5 70t-71.5 170z" />
<glyph unicode="5" horiz-adv-x="1167" d="M23 188q0 93 50.5 161.5t110.5 68.5q84 -51 187 -51q27 0 42 1.5t35.5 7.5t30.5 21t10 39q0 47 -67 58.5t-229 11.5q-60 0 -60 123q0 97 34 235t84.5 248t92.5 131q67 33 244 33q77 0 208 -8t203 -8q65 0 129 6q23 -67 23 -125q0 -66 -17 -124t-52 -106t-95 -76t-139 -28 q-95 0 -178.5 12t-87.5 12q-10 -6 -20.5 -35.5t-10.5 -52.5q140 0 234.5 -19.5t148.5 -60.5t76 -95.5t22 -133.5q0 -101 -44.5 -191.5t-121 -156t-183.5 -103.5t-228 -38q-432 0 -432 243z" />
<glyph unicode="6" horiz-adv-x="1132" d="M2 426q0 171 57 324.5t156 265t238 176.5t297 65q66 0 123.5 -8.5t112.5 -29.5t87.5 -63t32.5 -101q0 -50 -31 -121.5t-90 -126.5q-91 51 -186 51q-106 0 -183.5 -50t-115.5 -146q102 86 245 86q88 0 165 -34t128.5 -106.5t51.5 -169.5q0 -91 -30.5 -169.5t-83.5 -134.5 t-124.5 -96t-154 -59.5t-171.5 -19.5q-241 0 -382.5 121.5t-141.5 345.5zM467 420q7 -54 32 -81.5t62 -27.5q48 0 84.5 35t36.5 76q0 78 -80 78q-62 0 -135 -80z" />
<glyph unicode="7" horiz-adv-x="1052" d="M31 197q0 121 131.5 272t329.5 285q-97 -9 -160 -9q-77 0 -126 6.5t-83.5 20t-51 41t-23.5 64t-7 94.5q0 156 70 256q272 -31 467 -31q148 0 237 21q46 43 127 43q101 0 158 -43t57 -154q0 -67 -53 -123q-17 -29 -72 -91t-114.5 -132t-119 -151t-98 -172.5t-38.5 -172.5 q0 -38 8.5 -67.5t34.5 -71.5q-44 -52 -138 -98.5t-231 -46.5q-158 0 -231.5 71.5t-73.5 188.5z" />
<glyph unicode="8" horiz-adv-x="1259" d="M10 276q0 106 78 188.5t197 135.5q-148 93 -148 227q0 119 83.5 221.5t223 162t299.5 59.5q153 0 271.5 -37.5t188 -112t69.5 -176.5q0 -121 -65 -198t-169 -117q209 -96 209 -252q0 -103 -55.5 -181.5t-155.5 -126t-230.5 -71t-289.5 -23.5q-234 0 -370 76t-136 225z M502 381q0 -41 21 -65.5t81 -24.5q33 0 58.5 19t25.5 50q0 32 -36 59.5t-107 59.5q-43 -50 -43 -98zM633 856q0 -37 33 -64t98 -55q49 55 49 113q0 33 -25 56.5t-63 23.5q-39 0 -65.5 -21t-26.5 -53z" />
<glyph unicode="9" horiz-adv-x="1157" d="M76 174q0 50 31 121.5t90 126.5q91 -51 186 -51q104 0 182 49.5t117 144.5q-100 -84 -246 -84q-88 0 -164.5 34t-128 106.5t-51.5 169.5q0 114 46.5 206.5t125.5 151t179.5 90t211.5 31.5q241 0 383 -121.5t142 -345.5q0 -229 -97 -419.5t-269 -301.5t-382 -111 q-66 0 -123.5 9t-112.5 30t-87.5 63t-32.5 101zM500 807q0 -78 80 -78q64 0 133 80q-7 53 -32 81t-60 28q-48 0 -84.5 -35t-36.5 -76z" />
<glyph unicode=":" horiz-adv-x="665" d="M104 113q0 117 107 266q108 12 180 12q234 0 234 -149q0 -68 -36 -125t-90 -92t-113 -54.5t-110 -19.5q-87 0 -129.5 46t-42.5 116zM199 647q0 119 106 266q117 13 180 13q234 0 234 -150q0 -68 -35.5 -125t-89.5 -92t-113 -54.5t-110 -19.5q-87 0 -129.5 46t-42.5 116z " />
<glyph unicode=";" horiz-adv-x="731" d="M104 -172q0 33 2 41q74 0 121 30t47 68q-28 -8 -61 -8q-57 0 -79.5 28.5t-22.5 86.5q0 46 17.5 89t52 80.5t96.5 60t143 22.5q105 0 165 -53t60 -167q0 -81 -35 -154.5t-90.5 -123.5t-125 -79.5t-138.5 -29.5q-80 0 -116 27t-36 82zM246 647q0 119 106 266q117 13 180 13 q234 0 234 -150q0 -68 -35.5 -125t-89.5 -92t-113 -54.5t-110 -19.5q-87 0 -129.5 46t-42.5 116z" />
<glyph unicode="&#x3c;" horiz-adv-x="845" d="M104 373q0 66 76 160t179 174.5t213.5 138t175.5 57.5q174 0 174 -229q-15 -9 -143 -77t-181 -112q99 -47 158 -120t59 -148t-61.5 -138t-188.5 -99q0 39 -94.5 121.5t-203.5 148.5t-150 67q-13 29 -13 56z" />
<glyph unicode="=" horiz-adv-x="950" d="M137 412q62 -11 154 -11q75 0 233.5 9.5t223.5 9.5q58 0 108 -6q86 -23 86 -105q0 -26 -8 -59t-21.5 -77t-19.5 -69q-91 15 -193 15q-68 0 -193.5 -6.5t-174.5 -6.5q-80 0 -119 21.5t-57.5 86.5t-18.5 198zM205 795q62 -11 153 -11q75 0 233.5 9.5t223.5 9.5q59 0 109 -6 q86 -23 86 -105q0 -26 -8 -59t-21.5 -77t-19.5 -69q-92 15 -193 15q-68 0 -194 -6.5t-175 -6.5q-80 0 -118.5 21.5t-57 86.5t-18.5 198z" />
<glyph unicode="&#x3e;" horiz-adv-x="845" d="M70 227q11 7 140 76t181 113q-101 47 -159 120t-58 150q0 75 62 137t190 99q0 -41 94.5 -123.5t203 -148t150.5 -66.5q11 -28 11 -60q0 -87 -124 -214.5t-278 -219.5t-241 -92q-85 0 -128.5 54t-43.5 175z" />
<glyph unicode="?" horiz-adv-x="1044" d="M264 164q0 40 10 98q69 48 127 71t148 23q97 0 150 -38.5t53 -106.5q0 -98 -72 -159.5t-207 -61.5q-113 0 -161 43t-48 131zM289 1081q0 79 43.5 145t115.5 107.5t160.5 64.5t182.5 23q77 0 143.5 -11t126 -35.5t101.5 -61.5t66.5 -93t24.5 -126q0 -66 -23.5 -119 t-62.5 -91t-87.5 -71t-100 -67t-97.5 -70.5t-84 -89.5t-55 -117q-42 -16 -110 -25.5t-113 -9.5q-65 0 -103 29.5t-38 89.5q0 13 4 41q10 59 39 107.5t67 80t81.5 57t84.5 45t75 37.5t54.5 40.5t20.5 48.5q0 22 -22.5 30.5t-75.5 8.5q-73 0 -157.5 -55.5t-117.5 -139.5 q-72 32 -107.5 94t-35.5 133z" />
<glyph unicode="@" horiz-adv-x="2152" d="M160 246q0 115 36 231.5t102.5 226t169 204.5t227.5 166t286 112t338 41q184 0 338.5 -47t260 -130t164 -198t58.5 -248q0 -127 -48.5 -241.5t-132.5 -198t-205.5 -133t-260.5 -49.5q-173 0 -256 110q-41 -47 -107 -74.5t-137 -27.5q-156 0 -236.5 80.5t-80.5 230.5 q0 90 33 177t91.5 157t149 113t195.5 43q125 0 196 -74q58 45 117 45q70 0 126 -34t56 -87q-26 -28 -60 -135.5t-34 -190.5q0 -43 37 -43q83 0 137 90.5t54 229.5q0 162 -127 252t-351 90q-142 0 -266.5 -38t-216 -104t-157.5 -153.5t-99 -187.5t-33 -205q0 -82 31.5 -153.5 t94 -129t167 -90.5t240.5 -33q103 0 229 21q10 -45 10 -76q0 -104 -79.5 -156.5t-217.5 -52.5q-143 0 -261.5 21t-204 57t-151.5 87.5t-107.5 109t-67.5 126t-36.5 133.5t-10.5 136zM1044 352q0 -98 68 -98q32 0 64 16v31q0 113 41 225q-20 4 -37 4q-57 0 -96.5 -56 t-39.5 -122z" />
<glyph unicode="A" horiz-adv-x="1333" d="M-6 133q0 102 84 304.5t190 404.5q-39 10 -56 41t-17 69q0 55 30.5 130.5t64.5 126.5t48 51q46 0 198.5 3t204.5 3q80 0 139 -6.5t120 -27.5t100 -56.5t63.5 -98.5t24.5 -149q0 -82 -40.5 -203.5t-81 -218t-40.5 -117.5t10.5 -34t28.5 -13q66 0 154.5 52t169 147.5 t110.5 201.5q83 -3 144 -63.5t61 -149.5q0 -103 -76.5 -209.5t-194.5 -187t-269 -131.5t-292 -51t-205.5 78t-64.5 207q0 34 6 75l-125 -4l-67 -233q-83 -80 -242 -80q-72 0 -126 35t-54 104zM551 532l117 7q9 28 26.5 77t26.5 74.5t16.5 54.5t7.5 46q0 31 -24.5 48 t-69.5 17h-4z" />
<glyph unicode="B" horiz-adv-x="1302" d="M-14 190q0 351 209 639q4 48 6.5 104.5t3.5 92.5t4 76t10 63t20 43.5t35.5 29.5t55.5 9q168 0 233 -104q133 65 266 65q101 0 176 -23t117.5 -64t63 -91.5t20.5 -111.5q0 -88 -48 -176t-105 -142q77 -68 90 -188q122 41 205 107.5t122 176.5q70 0 106 -36t36 -117 q0 -139 -156.5 -279.5t-417.5 -216.5q-75 -104 -186.5 -167.5t-237.5 -63.5q-104 0 -153 53t-49 135q0 65 21.5 115t63.5 84.5t92 57.5t118 42q8 46 8 70q0 29 -2 43q-43 0 -84 24t-41 70q0 37 55 144.5t55 125.5q0 23 -14 39.5t-43 16.5q-6 0 -41 -5q-12 -89 -32.5 -187.5 t-57 -214t-80.5 -205.5t-107 -150t-133 -60q-204 0 -204 176z" />
<glyph unicode="C" horiz-adv-x="1206" d="M18 305q0 133 41 271.5t117 260t175 217.5t224 152t254 56q150 0 244 -69t94 -196q0 -120 -53.5 -230.5t-142.5 -178.5t-187 -68q-58 0 -99.5 34t-41.5 79q0 19 55.5 102t55.5 99q0 10 -5.5 19t-15.5 9q-25 0 -77.5 -68t-97 -165t-44.5 -164q0 -63 43.5 -101t136.5 -38 q45 0 110 15t144 47.5t153 76.5t139.5 109t100.5 139q69 0 100.5 -27t31.5 -108q0 -74 -42 -154.5t-113.5 -153.5t-171.5 -139.5t-212 -115t-239.5 -77t-248.5 -28.5q-113 0 -197.5 30t-134 84.5t-73 124.5t-23.5 156z" />
<glyph unicode="D" horiz-adv-x="1327" d="M-10 180q0 97 52 170.5t124 73.5h10q53 156 133 311q-16 -2 -45 -2q-90 0 -90 146q0 65 18 144.5t39.5 131t34.5 51.5q98 0 247 30t251 30q115 0 210.5 -39t157 -106t95 -153.5t33.5 -183.5q0 -182 -66 -344.5t-178 -278.5t-268 -183.5t-330 -67.5q-222 0 -325 72.5 t-103 197.5zM510 291h6q84 0 152 64.5t101.5 150t33.5 164.5q0 65 -27 104t-80 39q-3 0 -9.5 -1t-10.5 -1q-42 -155 -166 -520z" />
<glyph unicode="E" horiz-adv-x="1067" d="M0 244q0 209 231 334q-79 106 -79 229q0 106 54.5 195t142.5 146t195 88.5t216 31.5q55 0 128 -1t93 -1q45 0 59 2q33 -16 33 -121q0 -65 -10 -128.5t-28 -116.5t-48 -85.5t-67 -32.5q-36 0 -97 11.5t-98 11.5q-60 0 -88.5 -30.5t-28.5 -76.5v-12q52 6 90 6 q61 0 90 -24.5t29 -53.5q0 -39 -9 -74.5t-28.5 -69.5t-58 -54.5t-90.5 -20.5q-53 0 -103 9q-22 -39 -22 -72q0 -27 22 -40t76 -13q84 0 186 44t187 108.5t149.5 139.5t81.5 136q152 0 152 -150q0 -65 -44 -147.5t-128.5 -166t-193.5 -153.5t-253.5 -114t-294.5 -44 q-128 0 -226.5 32.5t-159 104t-60.5 173.5z" />
<glyph unicode="F" horiz-adv-x="1114" d="M8 780q0 65 14.5 126t44 119t78.5 105.5t113.5 83.5t153.5 56t194 20q130 0 248 -12t184.5 -26t122 -26t76.5 -12q0 -181 -53.5 -300t-145.5 -119q-10 0 -120 14q-8 -24 -70 -227h4q17 0 54.5 -1t58.5 -1q73 0 73 -64q0 -32 -27.5 -111.5t-52.5 -103.5q-119 -14 -196 -14 q-144 -492 -154 -580q-19 -14 -92 -36.5t-137 -22.5q-72 0 -116 60t-44 151q0 164 111 508q-148 63 -235 166.5t-87 246.5zM377 756q0 -42 61 -84q47 118 72 176q-67 -3 -100 -31t-33 -61z" />
<glyph unicode="G" horiz-adv-x="1097" d="M-10 297q0 146 47 294.5t129.5 272t187.5 220.5t229 151.5t246 54.5q129 0 198 -60.5t69 -168.5q0 -51 -16.5 -103t-57 -92.5t-96.5 -40.5q-63 0 -117.5 16.5t-69.5 16.5q-64 0 -129 -69t-106 -175t-41 -208q0 -37 13.5 -79.5t47.5 -62.5q69 183 171.5 298.5t226.5 115.5 q71 0 112 -41.5t41 -126.5q0 -89 -51.5 -188t-140.5 -187q-39 -239 -39 -422q0 -91 10 -137q-26 -10 -91 -23.5t-118 -13.5q-100 0 -156.5 74t-56.5 192q0 51 6 107q-8 0 -23.5 -1t-23.5 -1q-60 0 -116 13t-108.5 42.5t-91 73t-62 110t-23.5 148.5z" />
<glyph unicode="H" horiz-adv-x="1495" d="M-233 815q0 83 60 160.5t154.5 132t213 87t233.5 32.5q26 0 84 -4q102 157 207 157q78 0 144.5 -63.5t66.5 -183.5q0 -112 -117 -179q-59 -144 -111 -295q116 18 150 21q76 237 169.5 407t162.5 170q107 0 187.5 -59.5t80.5 -132.5q0 -19 -28.5 -90t-78.5 -188t-79 -195 q77 -67 77 -146q0 -37 -28 -64.5t-72 -27.5q-25 0 -43 2v-18q0 -37 8 -54.5t35 -17.5q62 0 148 67.5t153 163.5t80 173q90 0 135 -57t45 -152q0 -89 -61.5 -186.5t-157.5 -175t-223 -127.5t-248 -50q-177 0 -268.5 79.5t-91.5 197.5q0 76 22 192q-52 0 -158 -8 q-68 -253 -71 -360q-2 -3 -6 -8.5t-21.5 -19t-40.5 -23.5t-65 -18.5t-92 -8.5q-31 0 -66.5 12t-73.5 37.5t-63 76t-25 117.5q0 183 174 310q29 149 74 309q-101 -28 -174 -56t-148.5 -77t-119.5 -111q-53 37 -93 102.5t-40 149.5z" />
<glyph unicode="I" horiz-adv-x="1083" d="M59 135q0 68 40.5 117t97 69.5t118.5 20.5h21q55 303 166 522q-23 2 -66 2q-168 0 -237 -30q-62 51 -96.5 124.5t-34.5 135.5q0 100 84 149t227 49q220 0 452 -65q87 41 187 41q46 0 81.5 -16t56.5 -40t34.5 -56t18.5 -59.5t5 -54.5q0 -75 -71.5 -137.5t-188.5 -66.5 q-74 -329 -174 -539q168 -14 226 -14q77 0 77 -97q0 -20 -9.5 -50.5t-33.5 -68.5t-59 -70.5t-92.5 -54.5t-126.5 -22q-85 0 -217 66q-105 -78 -228 -78q-126 0 -192 61.5t-66 161.5z" />
<glyph unicode="J" horiz-adv-x="1030" d="M-111 2q0 25 9.5 57.5t28 68.5t53.5 67.5t79 46.5q0 -53 34.5 -95.5t90.5 -42.5q46 0 87.5 46.5t78.5 135.5t67.5 179.5t73 217.5t76.5 212q-95 10 -161 10q-112 0 -187.5 -31t-114.5 -77q-42 34 -61.5 83.5t-19.5 137.5q0 129 103 208t284 79q164 0 350 -86 q77 71 170 71q101 0 170 -56t69 -120q0 -49 -19 -90.5t-51 -70.5t-66 -48.5t-72 -32.5q-8 -44 -21.5 -127.5t-23.5 -147t-28.5 -153.5t-37 -159t-48 -151t-63 -142.5t-81 -120.5t-102 -97.5t-126.5 -61t-154 -23.5q-173 0 -280 82t-107 231z" />
<glyph unicode="K" horiz-adv-x="1294" d="M-182 1028q0 246 454 246q74 0 172 -4q57 90 123 90q33 0 75.5 -10.5t88 -31t76.5 -60t31 -89.5q0 -128 -93 -182q-27 -206 -86 -414q39 85 80.5 162.5t98 162t113 145.5t124 101t131.5 40q53 0 95 -30t64 -74.5t33 -85t11 -70.5t-32.5 -65.5t-83 -75t-103.5 -86 t-101 -113t-69 -140.5q16 -8 37.5 -85.5t41.5 -164.5t53.5 -159t70.5 -72q45 0 45 -41q0 -21 -7.5 -51.5t-27 -68t-47.5 -68.5t-73.5 -52.5t-100.5 -21.5q-82 0 -148.5 49.5t-109 127.5t-72.5 184.5t-44.5 209.5t-19.5 213q-36 -110 -78.5 -200t-94 -164t-113 -115 t-127.5 -41q-74 0 -133.5 24.5t-95 64.5t-54 86.5t-18.5 95.5q0 61 26 106q10 -2 29 -2q42 0 79.5 21.5t68.5 65t56 92t49.5 119.5t42.5 129.5t41 138.5q3 12 5 18.5t5 16.5t5 18q-212 -18 -317 -89q-176 31 -176 199z" />
<glyph unicode="L" horiz-adv-x="919" d="M-295 16q0 363 522 363h17q89 389 129 526q-215 -61 -273 -190q-123 0 -186.5 64.5t-63.5 150.5q0 45 18.5 88t60.5 84.5t103.5 73t155 50.5t207.5 19q53 0 109 -6q102 180 233 180q125 0 197 -66t72 -184q0 -96 -121 -147q-34 -403 -201 -756q116 -60 186 -139.5 t70 -175.5q0 -101 -47.5 -168.5t-132.5 -67.5q-74 102 -293 228q-193 -203 -432 -203q-86 0 -151.5 24t-103.5 64t-56.5 87.5t-18.5 100.5zM31 41q0 -15 15 -26t34 -11q35 0 72 72q-50 8 -62 8q-59 0 -59 -43z" />
<glyph unicode="M" horiz-adv-x="2074" d="M-43 1022q0 28 11 59.5t38.5 65t67 60t103.5 44t142 17.5q173 0 261 -170q186 92 358 92q295 0 362 -207q72 51 145 73.5t171 22.5q69 0 124.5 -22.5t88 -55t54 -74.5t29 -76.5t7.5 -64.5q0 -71 -29.5 -178t-58.5 -195.5t-29 -115.5q0 -53 56 -53q87 0 204.5 130 t194.5 341q112 0 169.5 -41.5t57.5 -136.5q0 -126 -58 -241t-159 -200.5t-248.5 -136.5t-316.5 -51q-194 0 -301 73.5t-107 178.5q0 71 49.5 234t49.5 184q0 71 -43 71q-25 0 -70 -18q-10 -36 -55.5 -191t-65.5 -242t-20 -141q0 -14 4 -34q-94 -64 -230 -64q-44 0 -79 5 t-69.5 19t-58 37t-37.5 60.5t-14 87.5q0 48 60.5 287.5t60.5 306.5q0 17 -2 26.5t-13.5 18t-33.5 8.5q-26 0 -72 -22q4 -82 4 -107q0 -192 -54.5 -353.5t-153 -257t-218.5 -95.5q-129 0 -186 78t-57 200q0 236 172 479q-29 226 -168 226q-17 0 -27 16t-10 43z" />
<glyph unicode="N" horiz-adv-x="1581" d="M4 840q0 43 24 88.5t73 87t114.5 74.5t156 53t191.5 20h90q77 115 178 115q14 0 28.5 -1.5t39 -10t42 -22.5t31 -43t13.5 -68q0 -73 -51 -117q24 -241 141 -488q19 252 81 455.5t153.5 320.5t195.5 117q89 0 151.5 -88.5t65.5 -199.5q-116 -216 -235 -508.5t-158 -507.5 q57 -80 57 -107q0 -40 -6.5 -69t-24 -56.5t-55 -42t-94.5 -14.5q-82 0 -159.5 62.5t-130 153t-87 177.5t-43.5 150q-4 -52 -14.5 -101.5t-33.5 -104t-55.5 -95t-85 -67t-118.5 -26.5q-99 0 -171 60t-72 121q0 32 12 52.5t33 20.5q29 0 54 20t45 59t37 84t34 109.5t30 121 t31 131.5t33 129q-99 -40 -162 -111t-80 -196q-35 3 -71 11t-78 27.5t-74.5 47.5t-54 73.5t-21.5 102.5z" />
<glyph unicode="O" horiz-adv-x="1280" d="M10 432q0 151 62.5 303.5t165 271t244.5 193t290 74.5q186 0 307 -117.5t121 -308.5q0 -156 -63 -308.5t-170 -271.5q168 58 298 183t191 303q80 0 136.5 -64t56.5 -125q0 -85 -42.5 -176t-132 -178t-213 -156t-301.5 -111t-382 -42q-90 0 -167 13.5t-153 50t-129 94.5 t-86 153t-33 219zM473 457q0 -92 43 -148q234 251 234 477q0 23 -12 38.5t-38 15.5q-39 0 -92.5 -59t-94 -151.5t-40.5 -172.5z" />
<glyph unicode="P" horiz-adv-x="1169" d="M-2 59q0 22 71 292.5t140 518.5q-56 16 -89.5 70t-33.5 139q0 92 53 161t115 69q13 -54 436 -54q110 0 192.5 -24t132.5 -63t81 -97.5t42 -119t11 -134.5q0 -160 -65 -288.5t-190.5 -204.5t-289.5 -76q-68 0 -135 12q-49 -221 -49 -240q-3 -27 -80 -48t-182 -21 q-72 0 -116 35t-44 73zM528 537q81 15 134 62t53 122q0 129 -115 141q-11 -48 -36 -161.5t-36 -163.5z" />
<glyph unicode="Q" horiz-adv-x="1357" d="M59 348q0 121 34 226.5t90 179t128.5 126.5t149.5 78t153 25q56 0 99 -23t68 -61.5t37.5 -84.5t12.5 -97q0 -118 -81 -232l53 -45q108 161 108 336q0 123 -73.5 202t-186.5 79q-30 34 -30 92q0 38 14.5 75.5t43.5 70.5t78.5 53t112.5 20q101 0 185.5 -43t139 -114.5 t84.5 -163.5t30 -193q0 -413 -240 -659q257 -253 289 -281q0 -31 -14 -67t-39.5 -71.5t-71 -59t-100.5 -23.5q-185 0 -400 299q-146 -45 -309 -45q-69 0 -133 25.5t-116.5 73.5t-84 126.5t-31.5 175.5zM412 420q0 -45 13.5 -77.5t34.5 -48t40 -22t37 -6.5q10 0 38 4 q-24 49 -34 84q-29 1 -50.5 33t-21.5 70q0 60 35.5 94.5t77.5 34.5q6 0 18 -4q4 24 4 32q0 45 -35 45q-57 0 -107 -73t-50 -166z" />
<glyph unicode="R" horiz-adv-x="1411" d="M4 174q0 171 68 345.5t190 322.5q1 40 17 336q9 31 65.5 49t122.5 18q131 0 213 -76q179 76 350 76q199 0 311.5 -101t112.5 -249q0 -89 -50 -190t-132 -180.5t-170 -106.5q38 -130 119.5 -217.5t150.5 -87.5q16 -11 30.5 -49.5t14.5 -77.5q0 -96 -93.5 -173t-227.5 -77 q-111 0 -198.5 51t-140.5 139t-80.5 199.5t-27.5 239.5q17 59 76 148t107.5 164t48.5 114q0 10 -3.5 19.5t-13.5 22t-33 20t-57 7.5h-4q-10 -103 -46 -224.5t-94.5 -239.5t-128.5 -215t-155 -156.5t-168 -59.5q-67 0 -120.5 54.5t-53.5 154.5z" />
<glyph unicode="S" horiz-adv-x="1132" d="M-27 184q0 161 85.5 250.5t215.5 89.5q75 0 131 -48t56 -114q0 -11 -6 -19t-12.5 -12.5t-12.5 -17t-6 -32.5q0 -25 20 -40.5t54 -15.5q40 0 66 26t26 56t-21 60.5t-54.5 59.5t-74 60.5t-80.5 70.5t-73.5 82t-54.5 102.5t-21 125.5q0 95 32 170t84.5 122.5t125.5 79 t150.5 44t164.5 12.5q128 0 246.5 -24t197.5 -66q19 -62 19 -108q0 -60 -23.5 -114.5t-59.5 -90.5t-77 -57t-78 -21q-62 0 -146 35t-114 35q-28 0 -28 -29q180 -116 273 -250t93 -260q0 -98 -45 -188.5t-124 -159t-196.5 -109.5t-252.5 -41q-214 0 -347 93t-133 243z" />
<glyph unicode="T" horiz-adv-x="1001" d="M2 971q0 125 87 211t226 86q72 0 105 -2q78 112 147 112q57 0 128.5 -20t131 -56.5t74.5 -76.5q0 -4 -1 -11t-1 -10q124 -39 203 -94q6 -30 6 -61q0 -113 -73 -208.5t-177 -95.5q-34 0 -104 9q-47 -108 -69.5 -163t-45.5 -137.5t-23 -142.5q0 -43 37 -43q125 0 261 114.5 t216 283.5q79 -1 129 -51.5t50 -114.5q0 -83 -39.5 -167t-112 -156t-166 -128.5t-210 -88.5t-236.5 -32q-199 0 -303.5 92.5t-104.5 241.5q0 233 76 514q-92 -10 -158 -39q-1 2 -13 25.5t-19 42.5t-14 64.5t-7 101.5z" />
<glyph unicode="U" horiz-adv-x="1359" d="M27 244q0 84 24.5 176.5t54 156.5t54 126t24.5 92q-43 0 -74.5 22t-47 56t-22.5 66.5t-7 61.5q0 51 23 99t67.5 88.5t118.5 65t166 24.5q154 0 219 -60.5t65 -168.5q0 -73 -26 -174t-58 -183.5t-58 -167t-26 -127.5q0 -47 41 -47q35 0 107 31q14 148 60 304t107.5 281 t137.5 205t147 80q105 0 162 -62.5t57 -187.5q-42 -39 -138.5 -302.5t-96.5 -333.5q0 -21 11.5 -34.5t31.5 -13.5q34 0 91 32t117 84t115 127.5t80 152.5q84 -3 134.5 -54.5t50.5 -123.5q0 -104 -67.5 -214.5t-176 -197.5t-255.5 -143t-294 -56q-177 0 -239 121 q-180 -86 -347 -86q-155 0 -244 81t-89 204z" />
<glyph unicode="V" horiz-adv-x="1327" d="M-59 682q0 153 295 246q37 149 131 227t219 78q83 0 127.5 -56.5t44.5 -146.5q0 -162 -144 -289l64 -258q126 222 201 559q1 100 26.5 172t68.5 110t90 54.5t103 16.5q100 0 169 -66t69 -209q0 -105 -41 -239t-108.5 -266.5t-159 -260.5t-188 -226t-200 -158t-190.5 -60 q-78 0 -123 38.5t-45 94.5q0 36 25 72q-45 67 -84.5 187.5t-59.5 258.5q-73 -16 -159 -16q-46 0 -90 6q-41 69 -41 131z" />
<glyph unicode="W" horiz-adv-x="1738" d="M25 1100q197 164 360 164q108 0 158.5 -98t50.5 -267q0 -263 -27 -465q74 55 115 96q-37 104 -37 160q0 181 90 300.5t209 119.5q205 0 205 -156q0 -153 -86 -340l47 -88q87 159 135.5 275.5t48.5 193.5q0 20 -1.5 32t-8 25.5t-21 21t-38.5 11.5q-31 73 -31 125 q0 47 20 87.5t50.5 66.5t68 44t71.5 26t62 8q158 0 255.5 -91t97.5 -241q0 -102 -43 -233t-115 -265t-152 -256t-168 -235q54 -108 54 -152q0 -111 -83.5 -173t-219.5 -62q-116 0 -186 59.5t-70 161.5q0 50 49 154q-34 53 -78 137q-195 -205 -381 -260q-73 -92 -170 -92 q-31 0 -58.5 7t-57 24.5t-47 56t-17.5 94.5q0 43 30.5 76.5t92.5 66.5q-25 341 -68.5 596.5t-105.5 284.5z" />
<glyph unicode="X" horiz-adv-x="1411" d="M-61 -10q0 23 4 44.5t17 46.5t33.5 43t56.5 30t83 12q78 0 336 328q-7 26 -20.5 75t-21 76t-18.5 62t-21 59.5t-21 42.5q-60 -21 -115 -21q-88 0 -136 62t-48 160t91 177t220 79q310 0 457 -308q286 349 407 349q59 0 103 -16.5t67.5 -44t34 -58t10.5 -64.5 q0 -47 -17.5 -83.5t-39.5 -36.5q-14 0 -34 -12t-48 -39t-54 -54.5t-67 -76t-71 -85t-81.5 -100t-84.5 -102.5q15 -62 25.5 -99.5t26.5 -75.5t35 -55.5t44 -17.5q74 0 155.5 45.5t146.5 113t119 141.5t83.5 135.5t29.5 90.5q21 0 39.5 -1.5t55.5 -11.5t63 -27.5t46.5 -55 t20.5 -88.5q0 -106 -58.5 -215.5t-155.5 -199.5t-216 -161.5t-248 -111t-243 -39.5q-203 0 -332 235q-296 -282 -494 -282q-48 0 -83 15t-51.5 38t-23.5 43.5t-7 38.5z" />
<glyph unicode="Y" horiz-adv-x="1091" d="M-276 -248q0 79 26 143t68 108t109 81.5t134 61t158 47.5q12 73 12 149q0 134 -30.5 250.5t-94 194t-147.5 77.5q-28 0 -54 54.5t-26 111.5q0 24 9 54.5t28.5 64t47 61.5t69.5 46t90 18q101 0 183.5 -46.5t138 -129.5t91 -187t52.5 -229q119 284 139 582q65 0 129.5 -11 t124 -34.5t96.5 -66.5t37 -99q0 -118 -41.5 -234.5t-111 -212t-142 -169t-153.5 -134.5q103 30 184 64.5t160 85t137 121t92 159.5q87 0 134.5 -44t47.5 -134q0 -66 -20 -125t-53.5 -106t-86 -88.5t-107 -73t-127 -59.5t-137 -48t-146 -38.5t-144.5 -30.5t-141 -25 q-102 -184 -237 -305t-247 -121q-105 0 -178 60.5t-73 156.5z" />
<glyph unicode="Z" horiz-adv-x="1263" d="M-51 33q0 55 22 99.5t57 71t74.5 40.5t77.5 14q53 0 119 -16q49 57 106 134t96.5 135.5t103.5 155t95 142.5q-12 0 -32.5 1t-30.5 1q-157 0 -221 -61q-70 0 -119 52.5t-49 153.5q0 43 11 85t38.5 84.5t69.5 74.5t110.5 52t153.5 20q64 0 176 -23t219 -59q99 70 188 70 q72 0 115 -56t43 -135q0 -55 -19.5 -101t-53 -78.5t-70.5 -54t-80 -36.5q-189 -432 -436 -699q83 -22 157 -22q70 0 155.5 35t111.5 77q147 -108 147 -260q0 -123 -112.5 -204.5t-301.5 -81.5q-227 0 -520 202q-90 -34 -188 -34q-107 0 -160 54t-53 167z" />
<glyph unicode="[" horiz-adv-x="821" d="M121 -240q0 47 12 115l215 1221q16 92 37 146.5t56.5 83t75.5 37.5t108 9q36 0 147 -3t176 -3q11 -9 21 -37t10 -51q0 -33 -5 -65.5t-22.5 -73t-45 -70t-77.5 -50t-116 -20.5l-181 -1015q53 0 91 -15.5t56.5 -41.5t26 -53t7.5 -58q0 -10 -4.5 -44t-21 -88t-40.5 -79 q-90 -6 -235 -6t-218 36t-73 125z" />
<glyph unicode="\" horiz-adv-x="888" d="M258 1223q0 86 63.5 135t153.5 49q46 0 96 -16q-2 -6 -2 -23q0 -69 46.5 -248t102 -360t102 -362.5t46.5 -254.5q0 -196 -190 -196q-56 0 -129 18q4 32 4 53q0 102 -46 291t-100.5 360.5t-100.5 334.5t-46 219z" />
<glyph unicode="]" horiz-adv-x="788" d="M-29 -307q0 33 5 65.5t22.5 72.5t45.5 69.5t78 50t116 20.5l180 1016q-53 0 -90.5 15.5t-56 41.5t-26 53t-7.5 58q0 10 4.5 44t20.5 88t40 79q90 6 236 6q145 0 217.5 -36t72.5 -126q0 -46 -12 -114l-215 -1221q-16 -92 -37 -146.5t-56 -83t-75 -37.5t-108 -9 q-36 0 -147.5 3t-176.5 3q-11 9 -21 37t-10 51z" />
<glyph unicode="^" horiz-adv-x="976" d="M145 649q0 66 56.5 164t125.5 180.5t144 173t98 131.5q62 33 129 33q72 0 127 -38t64 -74q4 -17 17.5 -68t20.5 -77.5t21 -77t23.5 -81t23 -73.5t25 -71t24.5 -57t25.5 -47.5t24.5 -27.5q-50 -53 -122 -84t-130 -31q-39 0 -62.5 2.5t-49 10.5t-40.5 25t-30.5 44 t-25.5 70.5t-19 100.5t-17 138q-121 -193 -152 -391q-52 -6 -94 -6q-207 0 -207 131z" />
<glyph unicode="_" horiz-adv-x="960" d="M63 -178q0 139 162 139q73 0 217 -4t215 -4q119 0 215 8q21 -48 21 -133q0 -82 -42 -107.5t-138 -25.5q-55 0 -250 4t-254 4q-98 0 -133 -12q-13 83 -13 131z" />
<glyph unicode="`" horiz-adv-x="712" d="M246 1219q12 70 74.5 130t156.5 60q12 0 40.5 -24.5t67.5 -59.5t84.5 -70t104 -59.5t113.5 -24.5l-6 -34q-7 -42 -48.5 -72t-101 -43.5t-129.5 -13.5q-95 0 -178.5 23.5t-136 73t-41.5 114.5z" />
<glyph unicode="a" horiz-adv-x="1343" d="M0 340q0 111 40 217.5t112 192t182 138t239 52.5q155 0 242 -90q72 55 143 55q87 0 155.5 -41.5t68.5 -105.5q-32 -35 -73.5 -167.5t-41.5 -232.5q0 -51 45 -51q67 0 150 66.5t147 162t88 181.5q209 0 209 -189q0 -48 -23.5 -107.5t-66.5 -123.5t-109.5 -124t-145 -108 t-180.5 -77t-210 -29q-198 0 -287 119q-52 -55 -131 -87t-164 -32q-190 0 -289.5 99t-99.5 282zM451 403q0 -118 84 -118q32 0 77 20v37q0 132 52 274q-21 7 -48 7q-70 0 -117.5 -70t-47.5 -150z" />
<glyph unicode="b" horiz-adv-x="1298" d="M-35 319q0 147 47.5 336t113 347t123 274t89.5 158q71 12 131 12q120 0 181 -54t60 -155q0 -57 -17.5 -128.5t-37 -123t-55.5 -139.5q162 96 281 96q103 0 168 -72.5t65 -222.5q0 -189 -135 -375q188 86 318.5 205t187.5 248q61 0 107 -21t69.5 -53.5t34 -63.5t10.5 -59 q0 -111 -69.5 -209t-190 -170t-279.5 -124.5t-342 -78.5t-374 -26q-47 0 -84 6q-83 2 -142.5 12.5t-111 36.5t-82.5 69.5t-48.5 111.5t-17.5 163zM436 330q0 -94 66 -94q52 0 96.5 94.5t44.5 177.5q0 117 -65 117q-38 0 -89 -41q-53 -150 -53 -254z" />
<glyph unicode="c" horiz-adv-x="1138" d="M0 373q0 110 42 211.5t118.5 181t193.5 127t256 47.5q189 0 287 -66.5t98 -177.5q0 -105 -72.5 -172t-193.5 -67q-20 0 -38 9.5t-30.5 21t-36 21t-53.5 9.5q-39 0 -63.5 -31.5t-24.5 -72.5q0 -48 46 -90.5t137 -42.5q215 0 374 116t258 334q94 0 152.5 -42.5t58.5 -129.5 q0 -45 -15.5 -97.5t-51 -112t-87 -116t-129 -108.5t-171 -91t-219 -62t-267.5 -23q-569 0 -569 424z" />
<glyph unicode="d" horiz-adv-x="1327" d="M-16 340q0 172 67 308.5t189.5 214t279.5 77.5q123 0 203 -41q54 166 114.5 310t96.5 196q62 37 145 37q139 0 195.5 -49.5t57.5 -145.5q0 -85 -66 -272.5t-131.5 -367t-65.5 -245.5q0 -30 10 -42.5t35 -12.5q103 0 213.5 115t169.5 293q99 0 154 -40t55 -147 q0 -65 -37 -143t-106.5 -153.5t-158.5 -137.5t-203 -100.5t-230 -38.5q-203 0 -297 131q-52 -60 -132.5 -93.5t-168.5 -33.5q-190 0 -289.5 99t-99.5 282zM434 403q0 -50 21.5 -84t62.5 -34q50 0 84 18v27q0 104 39 280q-20 13 -41 13q-78 0 -122 -67t-44 -153z" />
<glyph unicode="e" horiz-adv-x="1181" d="M-4 373q0 107 42.5 209.5t116.5 181.5t183.5 127.5t234.5 48.5q226 0 342.5 -93.5t116.5 -234.5q0 -127 -107.5 -214t-291.5 -87q-67 0 -106.5 28.5t-39.5 72.5q0 28 15 51q42 0 72 21t30 53q0 43 -49 43q-51 0 -85 -48.5t-34 -123.5q0 -70 50 -111t157 -41 q239 0 422 132t270 343q95 0 153 -43t58 -125q0 -83 -39 -167.5t-121 -165t-197 -143t-280.5 -100.5t-357.5 -38q-262 0 -408.5 108.5t-146.5 315.5z" />
<glyph unicode="f" horiz-adv-x="923" d="M-94 483q83 186 225 205q85 264 169 470.5t130 254.5q98 31 168 31q98 0 153.5 -51t55.5 -140q0 -69 -36.5 -174.5t-99.5 -261t-98 -268.5q113 -90 170 -227q121 43 218.5 164.5t121.5 228.5q211 0 211 -178q0 -59 -35.5 -136.5t-98 -156.5t-162 -147.5t-214.5 -100.5 q-18 -148 -95.5 -265t-190 -179t-236.5 -62q-83 0 -142.5 18t-94.5 47t-54.5 77t-25.5 96t-6 116q0 131 73 430q-102 120 -102 201v6q-2 2 -4 2zM324 -135q0 -25 14 -38t29 -13q24 0 42.5 48t18.5 101q0 108 -45 193q-59 -162 -59 -291z" />
<glyph unicode="g" horiz-adv-x="1333" d="M0 340q0 111 40.5 217.5t114 192t187.5 138t250 52.5q77 0 142 -31t102 -84q77 80 170 80q101 0 160 -42t59 -111q-15 -15 -30.5 -47.5t-34.5 -86.5t-35 -102.5t-41.5 -131t-43.5 -136.5q82 40 148 84t128.5 100.5t108.5 128.5t72 156q209 0 209 -189q0 -91 -48.5 -178.5 t-128 -157.5t-187 -133t-220 -108.5t-231.5 -79.5q-91 -183 -200.5 -288t-248.5 -105q-117 0 -176 52t-59 130q0 128 83.5 214.5t239.5 158.5q2 5 4.5 14t4.5 14q-116 -63 -222 -63q-140 0 -228.5 85t-88.5 257zM451 403q0 -50 21.5 -84t62.5 -34q25 0 65 14q53 190 100 301 q-26 23 -84 23q-68 0 -116.5 -74.5t-48.5 -145.5z" />
<glyph unicode="h" horiz-adv-x="1394" d="M-14 139q0 99 57 342.5t153 521t187 420.5q49 19 139 19q238 0 238 -199q0 -117 -88 -377q142 76 289 76q110 0 174.5 -54t64.5 -159q0 -57 -44 -198t-44 -171q0 -53 55 -53q91 0 193 100.5t178 307.5q112 0 169.5 -41.5t57.5 -136.5q0 -123 -65 -233t-171.5 -186 t-245 -120.5t-284.5 -44.5q-193 0 -279.5 62.5t-86.5 168.5q0 71 25.5 174.5t25.5 124.5q0 56 -39 56t-94 -41q-90 -318 -98 -459q-51 -46 -94 -61t-121 -15q-65 0 -119.5 16.5t-93.5 58t-39 101.5z" />
<glyph unicode="i" horiz-adv-x="741" d="M4 319q0 -174 96.5 -267t280.5 -93q108 0 210.5 29t181 77t144.5 108t109 124t66.5 123.5t23.5 107.5q0 189 -209 189q-23 -85 -92 -181t-156.5 -162.5t-156.5 -66.5q-45 0 -45 45q0 76 39.5 203t91.5 248q0 31 -9.5 54t-34.5 42.5t-74 30t-122 10.5q-96 0 -164 -45 t-106.5 -130.5t-56 -194.5t-17.5 -251zM270 1264q0 131 105 201.5t309 70.5q57 -83 57 -178q0 -130 -64.5 -209.5t-199.5 -79.5q-101 0 -154 53.5t-53 141.5z" />
<glyph unicode="j" horiz-adv-x="786" d="M-393 -229q0 66 42 117t89 51q5 0 25.5 -10.5t62 -20.5t98.5 -10q22 0 43 6l78 397q29 148 54 247.5t56.5 182t68 128.5t84.5 70.5t110 24.5q200 0 200 -118q-56 -319 -126 -609q355 219 466 492q61 0 105 -18t65 -47t30 -56.5t9 -56.5q0 -95 -59 -189.5t-167 -180 t-243 -161t-303 -145.5q-4 0 -4 -2q-33 -90 -82 -153t-112 -97.5t-131 -49t-152 -14.5q-307 0 -307 222zM324 1235q0 51 25 102t69 93t113 68t149 26q90 -64 90 -176q0 -78 -30 -150t-90.5 -121t-137.5 -49t-132.5 59t-55.5 148z" />
<glyph unicode="k" horiz-adv-x="1290" d="M-12 80q0 76 33 254t84.5 383t127.5 406t150 300q49 19 139 19q238 0 238 -199q0 -59 -30.5 -147.5t-86 -213.5t-74.5 -177q-24 -72 -45 -197q86 199 223.5 335t266.5 136q52 0 89 -40t50.5 -85.5t13.5 -85.5t-14 -67.5t-39 -30.5q-32 -3 -101.5 -75t-126.5 -158 t-57 -124q0 -41 41 -41q92 0 219.5 69t232 177t126.5 207q97 0 159 -41.5t62 -132.5q0 -67 -56 -154.5t-155 -173.5t-219 -159t-263.5 -118.5t-273.5 -45.5q-114 0 -187 69.5t-73 167.5v19q-38 -93 -104 -144t-174 -51q-78 0 -127 28.5t-49 90.5z" />
<glyph unicode="l" horiz-adv-x="735" d="M-14 330q0 110 39 280t93.5 327.5t109.5 287.5t89 180q62 37 146 37q139 0 195.5 -49.5t56.5 -145.5q0 -85 -65.5 -272.5t-131 -367t-65.5 -245.5q0 -30 10 -42.5t35 -12.5q104 0 220.5 116.5t174.5 293.5q38 0 67 -4t57.5 -15.5t46.5 -30.5t29 -52t11 -78 q0 -65 -36 -144t-103 -155.5t-152.5 -140.5t-193.5 -103t-216 -39q-211 0 -314 102t-103 273z" />
<glyph unicode="m" horiz-adv-x="1978" d="M-68 150q0 66 84 349t84 345q22 36 92 66t132 30q191 0 241 -143q193 145 396 145q85 0 144.5 -33.5t82.5 -99.5q185 133 377 133q110 0 174.5 -54t64.5 -159q0 -57 -54 -202.5t-54 -176.5q0 -53 55 -53q42 0 91 24t102.5 72t106 131.5t91.5 190.5q112 0 170 -41.5 t58 -136.5q0 -122 -74 -234.5t-189 -190t-254.5 -123.5t-269.5 -46q-193 0 -279.5 62.5t-86.5 168.5q0 71 35.5 179.5t35.5 129.5q0 56 -39 56q-51 0 -116 -58q-82 -238 -82 -391q0 -19 4 -65q0 -29 -89 -50.5t-180 -21.5q-53 0 -90 10.5t-56.5 24.5t-29.5 38.5t-12 42.5 t-2 48q0 58 22 139t44 145.5t22 81.5q0 56 -39 56q-49 0 -110 -54q-5 -18 -21.5 -81.5t-22 -84t-17.5 -70t-16.5 -75.5t-10 -62t-7.5 -65q-21 -38 -91.5 -60t-131.5 -22q-285 0 -285 185z" />
<glyph unicode="n" horiz-adv-x="1380" d="M-68 150q0 66 84 349t84 345q22 36 92 66t132 30q191 0 241 -143q193 145 396 145q110 0 174.5 -54t64.5 -159q0 -57 -44 -198t-44 -171q0 -53 55 -53q88 0 189.5 101t189.5 309q108 0 158.5 -45.5t50.5 -143.5q0 -140 -116 -275t-292 -217.5t-348 -82.5 q-193 0 -279.5 62.5t-86.5 168.5q0 71 25.5 174.5t25.5 124.5q0 56 -39 56q-38 0 -106 -56q-15 -64 -49 -216t-50 -220q-21 -38 -91.5 -60t-131.5 -22q-285 0 -285 185z" />
<glyph unicode="o" horiz-adv-x="1249" d="M6 373q0 123 50 231t132 181t188.5 115t219.5 42t202 -25.5t143.5 -65.5t90 -94t49 -106.5t13.5 -107.5q0 -118 -45 -224q131 51 225 147.5t162 248.5q92 0 149 -38t57 -122q0 -90 -48 -178.5t-138.5 -164.5t-211 -135t-276.5 -92.5t-323 -33.5q-142 0 -256 24t-201 73 t-134.5 131.5t-47.5 193.5zM457 426q0 -115 112 -150q84 95 84 193q0 49 -29 73.5t-63 24.5q-44 0 -74 -35.5t-30 -105.5z" />
<glyph unicode="p" d="M-195 -270q0 61 30 185t79 277.5t92.5 280.5t91.5 261.5t54 152.5q52 24 137 41.5t166 17.5q41 0 78.5 -22t44.5 -70q163 88 303 88q103 0 168 -72.5t65 -222.5q0 -179 -125 -358q152 87 261 198.5t167 229.5q61 0 107 -21t69.5 -53.5t34 -63.5t10.5 -59 q0 -88 -61 -177.5t-168.5 -164t-244 -133.5t-298.5 -92t-321 -33q-145 0 -234 25q-74 -221 -94 -305q-79 -29 -233 -29q-26 0 -53.5 5t-57.5 17t-49 37.5t-19 59.5zM422 281q14 -27 53 -27q73 0 120.5 83.5t47.5 170.5q0 117 -65 117q-27 0 -54 -17q-17 -56 -54.5 -176 t-47.5 -151z" />
<glyph unicode="q" horiz-adv-x="1327" d="M0 340q0 111 40.5 217.5t114 192t187.5 138t250 52.5q127 0 209 -76l6 13q15 31 53.5 45t71.5 14q104 0 179 -55.5t75 -137.5q-11 -8 -22.5 -36t-25 -79t-25.5 -101t-31.5 -131.5t-34.5 -141.5q163 90 286 215t160 250q61 0 107 -21t69.5 -53.5t34 -63.5t10.5 -59 q0 -85 -51.5 -170t-134 -153t-185 -126t-204.5 -96t-193 -57q-170 -473 -407 -473q-86 0 -127 33.5t-41 89.5q0 37 14 72q-41 3 -86.5 17t-60.5 26q0 247 174 256l129 6q23 68 41 141q-140 -90 -265 -90q-140 0 -228.5 85t-88.5 257zM451 403q0 -50 21.5 -84t62.5 -34 q40 0 102 30q46 216 65 281q-27 27 -86 27q-68 0 -116.5 -74.5t-48.5 -145.5z" />
<glyph unicode="r" horiz-adv-x="1140" d="M-473 98q0 72 29.5 113t81.5 41q70 0 135 24.5t114.5 63.5t93 92t73 104.5t52.5 106.5q-69 64 -69 201q0 122 83.5 204t211.5 82q83 0 125.5 -42.5t42.5 -98.5q0 -34 -15 -100q152 29 224 29q137 0 200.5 -40.5t63.5 -158.5q0 -48 -26.5 -108.5t-53.5 -124t-27 -119.5 q0 -54 54 -54q62 0 131.5 47.5t121.5 113.5t89 133.5t43 111.5q211 0 211 -178q0 -50 -21 -111t-60.5 -127.5t-103.5 -128t-143 -111t-186.5 -79t-227.5 -29.5q-90 0 -159.5 28t-110.5 75.5t-61.5 105.5t-20.5 123q0 153 47 270q-76 0 -109 4q-3 -57 -39 -132.5t-105 -155 t-157.5 -147t-209 -110.5t-246.5 -43q-76 0 -76 125z" />
<glyph unicode="s" horiz-adv-x="980" d="M39 -53q0 54 20 93t62.5 64t88 40t116.5 30q-7 50 -40 106.5t-66.5 101t-61 116t-27.5 151.5q0 82 37 153t96 117t132 72.5t147 26.5q130 0 196 -59t66 -146q0 -187 -203 -256q8 -8 35.5 -33.5t43.5 -43t39 -45.5t40 -61t28 -71q255 130 367 412q88 -3 148.5 -58.5 t60.5 -134.5q0 -80 -39 -157t-112 -143.5t-185.5 -118.5t-251.5 -80q-28 -73 -84.5 -129.5t-120.5 -86.5t-120 -44.5t-99 -14.5q-171 0 -242 50t-71 149z" />
<glyph unicode="t" horiz-adv-x="989" d="M29 758q0 19 2 37.5t8.5 43t21.5 39.5t37 15q33 0 60 2q59 178 122 323.5t99 188.5q78 37 158 37q73 0 122.5 -16t73.5 -46.5t33.5 -63.5t9.5 -77q0 -92 -82 -309l142 8q34 0 67 -35t33 -100q0 -47 -19.5 -97t-53.5 -91.5t-85.5 -68t-109.5 -26.5h-129q-31 -109 -31 -170 q0 -45 43 -45q92 0 208.5 54.5t217.5 150.5t135 199q88 0 139.5 -49t51.5 -134q0 -65 -44 -143t-128 -154.5t-193 -140.5t-253 -103.5t-294 -39.5q-184 0 -272 89t-88 249q0 138 51 350q-53 53 -53 123z" />
<glyph unicode="u" horiz-adv-x="1353" d="M-6 324q0 159 53.5 324t124.5 270q83 36 176 36q56 0 98 -9t66.5 -24t40 -37.5t20.5 -45.5t5 -52q0 -15 -41 -170t-41 -233q0 -39 19 -64.5t54 -25.5q19 0 47 8q1 146 56 315t139 302q106 32 174 32q232 0 232 -164q0 -64 -35 -154t-70 -172.5t-35 -127.5t45 -45 q68 0 155.5 71.5t155 172t91.5 186.5q209 0 209 -189q0 -58 -32.5 -131.5t-97.5 -150t-151 -141t-206 -105.5t-249 -41q-199 0 -297 94q-65 -40 -156.5 -69t-170.5 -29q-213 0 -296 87.5t-83 281.5z" />
<glyph unicode="v" horiz-adv-x="1368" d="M47 494q0 64 13 127t41.5 122t69.5 104t102 72t133 27q93 0 136.5 -44t43.5 -99q0 -26 -14 -95t-39 -185.5t-41 -209.5q45 0 137 146q0 140 53 272t144 215.5t192 83.5q82 0 146.5 -57.5t64.5 -155.5q0 -99 -56.5 -230.5t-150.5 -262.5q44 -35 92 -35q57 0 123.5 43 t123.5 109t104.5 138.5t76.5 137.5q199 0 199 -146q0 -111 -72 -227.5t-178 -202t-228.5 -140t-222.5 -54.5q-185 0 -284 96q-156 -117 -291 -117q-74 0 -135 21t-103.5 55t-75.5 82t-52 98.5t-31 108t-16.5 106t-4.5 97.5z" />
<glyph unicode="w" horiz-adv-x="1961" d="M47 494q0 64 13 127t41.5 122t69.5 104t102 72t133 27q93 0 136.5 -44t43.5 -99q0 -26 -14 -95t-39 -185.5t-41 -209.5q34 0 72 42t87 120v19q0 77 19.5 151.5t57.5 139t102 108t145 51.5h12q3 0 11 1t12 1q202 0 202 -168q0 -127 -84 -289l-32 -176q46 0 137 148v33 q0 92 32 188t84 173t124.5 126t148.5 49q82 0 146.5 -57.5t64.5 -155.5q0 -99 -56.5 -230.5t-150.5 -262.5q44 -35 92 -35q57 0 123.5 43t123.5 109t104.5 138.5t76.5 137.5q199 0 199 -146q0 -111 -72 -227.5t-177.5 -202t-228 -140t-222.5 -54.5q-182 0 -285 98 q-159 -119 -291 -119q-186 0 -293 129q-169 -129 -311 -129q-74 0 -135 21t-103.5 55t-75.5 82t-52 98.5t-31 108t-16.5 106t-4.5 97.5z" />
<glyph unicode="x" horiz-adv-x="1431" d="M-473 98q0 71 34.5 112.5t88.5 41.5q77 0 148 31t122 78.5t94.5 110t69.5 120t43 113.5q-12 32 -12 96q0 85 79 135.5t236 50.5q143 0 240.5 -70.5t169.5 -191.5q115 132 206.5 206.5t163.5 74.5q97 0 152 -64.5t55 -157.5q0 -46 -17.5 -75t-43.5 -29q-14 0 -31.5 -8.5 t-39 -27.5t-41.5 -39.5t-49.5 -54t-52 -60.5t-59 -70.5t-61.5 -73.5q56 -92 125 -92q63 0 129 37.5t118 93t97 121t72.5 120t38.5 91.5q13 0 24.5 -0.5t36 -4t43.5 -10t42 -19.5t38.5 -31.5t26 -47.5t10.5 -65q0 -54 -30.5 -123.5t-84 -141t-131 -140t-166 -122t-195.5 -86 t-212 -32.5q-142 0 -267 163q-222 -182 -415 -182q-52 0 -90 16.5t-56.5 41.5t-26.5 48t-8 44q0 32 9 62t30 61t66 50t108 19q56 0 199 164q-54 104 -95 157.5t-81 53.5q-4 -59 -43.5 -139t-111.5 -163.5t-162.5 -154.5t-208.5 -116.5t-236 -45.5q-55 0 -71.5 30t-16.5 95z " />
<glyph unicode="y" horiz-adv-x="1286" d="M23 354q0 269 206 578q48 22 131 22q64 0 109 -13t69 -36.5t34.5 -43t17.5 -44.5q-7 -30 -30 -98t-39.5 -135t-16.5 -127q0 -39 19.5 -64.5t54.5 -25.5q24 0 43 8q109 400 217 522q56 37 170 37q93 0 144.5 -31.5t53.5 -64.5q-5 -16 -55.5 -225t-97.5 -359 q166 84 279 193.5t163 267.5q209 0 209 -189q0 -93 -47.5 -180t-124.5 -155.5t-183.5 -129.5t-215 -104t-228.5 -78q-201 -401 -463 -401q-117 0 -176 52t-59 130q0 128 83.5 214.5t239.5 158.5l17 59q-116 -72 -223 -72q-70 0 -124 19.5t-87 51t-53.5 76.5t-28.5 90t-8 97z " />
<glyph unicode="z" horiz-adv-x="1323" d="M-473 98q0 72 29.5 113t81.5 41q70 0 135 24.5t114.5 63.5t93 92t73 104.5t52.5 106.5q-69 64 -69 201q0 122 83.5 204t211.5 82q82 0 128 -48t46 -121q0 -38 -2 -54q111 19 295 19q167 0 245 -8q61 55 132 55q90 0 137 -51t47 -125t-46.5 -131.5t-123.5 -57.5 q-81 -147 -252 -291q46 -44 78 -102q189 110 314 232t165 268q106 0 158.5 -46t52.5 -153q0 -151 -186 -322.5t-453 -281.5q-11 -86 -47.5 -158t-90 -122t-121.5 -84.5t-142.5 -51t-153.5 -16.5q-78 0 -151 22.5t-123 67t-50 100.5q0 29 15.5 58.5t51.5 60.5t71 56.5 t99 60.5t109 58t125 63q-15 40 -57 98q-46 -12 -84 -12q-73 0 -116.5 45.5t-43.5 107.5q0 72 54.5 124t154.5 52q43 0 84 -6q68 62 129 139q-108 -18 -311 -18q-76 0 -109 4q-3 -57 -39 -132.5t-105 -155t-157.5 -147t-209 -110.5t-246.5 -43q-76 0 -76 125z" />
<glyph unicode="{" horiz-adv-x="876" d="M125 416q0 114 58 174.5t136 60.5q63 0 93 45.5t30 106.5q0 18 -6 64.5t-6 86.5q0 75 10 135.5t36.5 116.5t67.5 93.5t107 60t152 22.5q27 0 80.5 -1t79.5 -1q54 0 81 2q37 -46 37 -114q0 -82 -56.5 -146.5t-154.5 -64.5q-20 0 -61 6t-59 6q-9 -27 -9 -70q0 -25 4.5 -84 t4.5 -90q0 -274 -222 -331q62 -4 94.5 -53t32.5 -126q0 -91 -39.5 -205.5t-83.5 -195.5q18 1 67 4.5t71 3.5q63 0 100 -38t37 -109q0 -42 -20 -91t-60 -81q-20 2 -68 2l-174 -2q-268 0 -268 202q0 77 19.5 151.5t43 121t43 95t19.5 79.5q0 35 -25.5 57.5t-70.5 22.5 q-21 0 -61 -7t-48 -12q-12 49 -12 103z" />
<glyph unicode="|" horiz-adv-x="718" d="M39 -158q0 83 44.5 312t114.5 560.5t105 534.5q29 181 29 240q0 11 22 19t55.5 11t54 4t34.5 1q202 0 202 -146q0 -87 -45.5 -326t-99.5 -485t-99.5 -503t-45.5 -377q-19 -10 -91 -19.5t-120 -9.5q-160 0 -160 184z" />
<glyph unicode="}" horiz-adv-x="827" d="M-47 -285q0 82 56.5 146.5t154.5 64.5q20 0 61.5 -6t59.5 -6q8 24 8 70q0 24 -4 84t-4 90q0 274 221 331q-62 4 -94.5 53t-32.5 126q0 91 39.5 205.5t83.5 195.5q-18 -1 -66.5 -4.5t-70.5 -3.5q-63 0 -100.5 38.5t-37.5 108.5q0 42 20 91t60 81q20 -2 68 -2l174 2 q268 0 268 -202q0 -77 -19.5 -151.5t-43 -121t-43 -95t-19.5 -79.5q0 -35 25.5 -57.5t70.5 -22.5q21 0 61 7t48 12q12 -49 12 -103q0 -114 -58 -174.5t-136 -60.5q-63 0 -93 -45.5t-30 -106.5q0 -18 6 -64.5t6 -86.5q0 -75 -10 -135.5t-36.5 -116.5t-67.5 -93.5t-107 -60 t-152 -22.5q-27 0 -80 1t-79 1q-55 0 -82 -2q-37 46 -37 114z" />
<glyph unicode="~" horiz-adv-x="1099" d="M141 428q0 87 83 151t210 64q114 0 238 -29.5t170 -29.5q84 0 182 45q88 -36 88 -121q0 -95 -88.5 -158t-212.5 -63q-76 0 -216.5 40t-201.5 40q-102 0 -188 -72q-64 58 -64 133z" />
<glyph unicode="&#xa1;" horiz-adv-x="739" d="M6 -356q83 -76 252 -76q105 0 183.5 85t109.5 255q47 265 47 442q0 53 -12 79.5t-53 41t-123 14.5q-70 0 -144 -14q-35 -195 -108 -452t-152 -375zM240 766q0 86 49 192q104 35 186 35q57 0 100.5 -16.5t66.5 -40t37.5 -56t18.5 -58t4 -52.5q-57 -92 -135.5 -139 t-156.5 -47q-74 0 -122 47t-48 135z" />
<glyph unicode="&#xa2;" horiz-adv-x="1138" d="M145 502q0 184 111 334t303 206l2 5q23 155 31 192q77 6 133 6q188 0 188 -100l-14 -88q119 -23 180.5 -84t61.5 -148q0 -105 -73 -172t-194 -67q-25 0 -46 15t-47.5 30.5t-63.5 15.5q-40 0 -66 -43.5t-26 -103.5q0 -39 24 -65.5t64 -26.5q109 0 237 81q2 -1 6.5 -4.5 t14.5 -16.5t18 -30t14.5 -48t6.5 -68q0 -89 -71.5 -156t-225.5 -84l-31 -176q-31 -8 -111 -8q-109 0 -150.5 29t-41.5 124q0 5 1 15.5t1 15.5l6 35q-113 45 -177.5 141t-64.5 244z" />
<glyph unicode="&#xa3;" horiz-adv-x="1124" d="M4 178q0 90 57 151.5t164 73.5q39 73 58 134q-14 -1 -37 -4t-31 -3q-21 0 -31 8.5t-10 30.5q0 56 33.5 90.5t83.5 34.5q25 0 39 -2q6 22 17 67q19 75 29.5 113t32.5 101.5t43 96t56.5 75.5t77.5 63.5t101 36t132 15.5q119 0 196 -55t77 -142q0 -48 -16.5 -86.5 t-39.5 -58.5t-44.5 -30.5t-35.5 -10.5q-21 0 -41.5 24.5t-44.5 24.5q-36 0 -64 -59t-61 -175l160 17q11 0 18.5 -2t15 -13t7.5 -32q0 -27 -7 -53.5t-24 -53.5t-52.5 -44t-84.5 -17q-28 0 -86 4q-29 -94 -53 -152q68 -8 174 -8q96 0 195 27q18 -62 18 -113q0 -74 -35.5 -130 t-94 -86.5t-123.5 -45.5t-134 -15q-101 0 -238 58q-100 -43 -217 -43q-86 0 -133 54t-47 134z" />
<glyph unicode="&#xa4;" horiz-adv-x="1433" d="M96 137q0 58 54 108t133 83q-9 61 -9 88q0 133 54 270q-150 95 -150 184q0 57 44 110.5t100 53.5q13 -9 60.5 -50t84.5 -69q148 158 350 158q45 0 87.5 -42.5t68.5 -104.5q76 -6 137 -35q15 10 56 39t63 44.5t52.5 33.5t51.5 26q54 -4 90.5 -55t36.5 -102 q0 -54 -59.5 -115.5t-145.5 -104.5q2 -12 2 -41q0 -133 -63 -262q119 -67 205 -73q12 -44 12 -82q0 -67 -32.5 -111.5t-73.5 -44.5q-52 0 -127.5 29t-141.5 73q-137 -108 -336 -108q-161 0 -262 59q-188 -106 -227 -106q-36 0 -60.5 15.5t-35.5 41t-15 47t-4 43.5zM659 446 q0 -50 11 -81t28 -31q47 0 98 63.5t68 153.5q4 32 4 53q0 67 -26 146q-80 -38 -131.5 -116.5t-51.5 -187.5z" />
<glyph unicode="&#xa5;" horiz-adv-x="1304" d="M76 295q0 50 54.5 114.5t121.5 65.5l156 -6l-11 49q-155 0 -215.5 10.5t-60.5 53.5q0 81 84 172q19 -3 41.5 -4t50.5 -1t43 -1q-14 91 -50 195t-65.5 170.5t-29.5 76.5q137 76 247 76q136 0 210.5 -117.5t74.5 -341.5q0 -28 -4 -98q32 75 93 201.5t101.5 212.5t40.5 100 q0 16 68 24t100 8t55 -1.5t52 -8.5t47 -19t30.5 -35.5t12.5 -55.5q0 -125 -176 -381q20 0 58 1t55 1q33 0 47 -2q-13 -76 -34 -125.5t-50 -73.5t-59 -32.5t-72 -8.5h-88q-22 -38 -23 -41q212 5 240 8q32 -48 32 -86q0 -58 -63.5 -97.5t-192.5 -39.5h-88q-21 -41 -39 -203 q-4 -17 -39.5 -37.5t-125 -38.5t-209.5 -18q-66 0 -111 35.5t-45 64.5q0 38 13.5 105t17.5 92q-41 0 -148 5.5t-139 6.5q-8 11 -8 25z" />
<glyph unicode="&#xa6;" horiz-adv-x="743" d="M70 -303q0 90 55 314t55 274q0 22 -2 30q4 1 36 9.5t46.5 12t41.5 7.5t48 4q87 0 124.5 -26t37.5 -95q0 -125 -43 -344t-49 -342q-20 -10 -82 -19t-109 -9q-159 0 -159 184zM268 735q0 38 47 297t47 326q94 20 166 20q91 0 140 -31t49 -87q0 -99 -27 -218.5t-59 -242 t-39 -211.5q-140 -17 -168 -17q-79 0 -117.5 35.5t-38.5 128.5z" />
<glyph unicode="&#xa7;" horiz-adv-x="1290" d="M41 -43q0 85 82.5 143t238.5 58q41 0 66 -2q-2 -8 -2 -21q0 -22 10.5 -34.5t26.5 -12.5q28 0 46.5 17.5t18.5 46.5q0 20 -21.5 39t-56 37.5t-76 40t-83.5 52t-76.5 67.5t-56 92.5t-21.5 121.5q0 137 80.5 238.5t245.5 126.5q34 112 165.5 182t348.5 70q197 0 308.5 -56 t111.5 -166q0 -89 -69 -151t-202 -62q-35 0 -53 2q2 8 2 23q0 45 -31 45q-23 0 -39 -21t-16 -53q0 -29 21 -58.5t52 -54.5t67.5 -61.5t67.5 -76.5t52 -103.5t21 -138.5q0 -47 -10 -115q-20 -118 -121 -221t-257 -165t-327 -62q-136 0 -250 24.5t-189 78.5t-75 130zM557 610 q0 -51 58 -127t131 -132.5t118 -61.5q2 8 2 22q0 39 -23.5 81t-57 78.5t-66.5 72.5t-56.5 75.5t-23.5 75.5q0 15 2 21q-84 -44 -84 -105z" />
<glyph unicode="&#xa8;" horiz-adv-x="1210" d="M342 1135q7 27 25.5 56.5t49 60t81 50t110.5 19.5q69 0 152 -29q6 -59 -4 -112q-16 -95 -77 -147t-136 -52q-68 0 -122.5 39t-78.5 115zM836 1135q7 27 25.5 56.5t49 60t81 50t110.5 19.5q68 0 151 -29q6 -59 -4 -112q-16 -95 -77 -147t-136 -52q-68 0 -122 39t-78 115z " />
<glyph unicode="&#xa9;" horiz-adv-x="1480" d="M106 422q0 104 27 204t87.5 193.5t147.5 164t216.5 113t285.5 42.5q282 0 443.5 -140.5t161.5 -400.5q0 -307 -201.5 -485.5t-554.5 -178.5q-131 0 -235.5 25.5t-174.5 69.5t-116 106.5t-66.5 133.5t-20.5 153zM358 446q0 -147 102.5 -226t280.5 -79q240 0 363 124.5 t123 338.5q0 87 -30 152.5t-81 102t-112 54t-130 17.5q-121 0 -220 -39t-163 -106t-98.5 -154t-34.5 -185zM483 467q0 93 46 175.5t137 135.5t206 53q112 0 170 -39t58 -104t-46 -100t-126 -35q-16 0 -33 19.5t-43 19.5q-28 0 -50 -25.5t-22 -56.5q0 -82 51 -82 q31 0 49.5 13t34.5 42q58 0 89.5 -18t31.5 -64q0 -91 -79 -132.5t-201 -41.5q-123 0 -198 60t-75 180z" />
<glyph unicode="&#xaa;" horiz-adv-x="915" d="M109 903q0 93 42 177t125 140t189 56q95 0 149 -57q40 34 91 34q54 0 96.5 -25.5t42.5 -66.5q-20 -22 -46 -103t-26 -143q0 -32 29 -32q63 0 138.5 84.5t100.5 169.5q129 0 129 -117q0 -46 -33 -105t-89.5 -114.5t-145.5 -94t-188 -38.5q-124 0 -181 73q-67 -73 -182 -73 q-119 0 -180 60.5t-61 174.5zM389 942q0 -74 51 -74q23 0 49 13v24q0 83 31 168q-16 4 -28 4q-44 0 -73.5 -42.5t-29.5 -92.5z" />
<glyph unicode="&#xab;" horiz-adv-x="1386" d="M76 438q0 13 4 37q28 21 73.5 73.5t91.5 105.5t101 105t122.5 85t135.5 33q64 0 115.5 -62.5t73.5 -159.5q-175 0 -351 -192q95 -31 142 -87.5t47 -123.5q0 -98 -85.5 -176t-205.5 -78q2 10 2 31q0 46 -27.5 88t-66.5 76t-78 68.5t-66.5 80t-27.5 96.5zM696 438 q0 13 4 37q28 21 73.5 73.5t92 105.5t101.5 105t122.5 85t135.5 33q64 0 114.5 -62.5t73.5 -159.5q-174 0 -350 -192q95 -31 141.5 -87.5t46.5 -123.5q0 -98 -85 -176t-205 -78q2 10 2 31q0 46 -27.5 88t-66.5 76t-78.5 68.5t-67 80t-27.5 96.5z" />
<glyph unicode="&#xac;" horiz-adv-x="1017" d="M113 434q0 77 59 174q47 -12 147 -12q73 0 272 10t255 10q81 0 116 -32.5t35 -100.5q0 -46 -34 -188.5t-39 -210.5q-90 -33 -164 -33q-60 0 -102 24.5t-42 82.5q0 50 50 164q-67 -9 -184 -15t-181 -6q-188 0 -188 133z" />
<glyph unicode="&#xad;" horiz-adv-x="770" d="M76 494q0 44 14 92q44 7 270.5 19.5t303.5 12.5q22 0 38.5 -35.5t16.5 -90.5q0 -39 -14 -65t-36 -41t-66.5 -22.5t-87.5 -9.5t-116 -2q-323 0 -323 142z" />
<glyph unicode="&#xae;" horiz-adv-x="1480" d="M106 422q0 104 27 204t87.5 193.5t147.5 164t216.5 113t285.5 42.5q282 0 443.5 -140.5t161.5 -400.5q0 -307 -201.5 -485.5t-554.5 -178.5q-131 0 -235.5 25.5t-174.5 69.5t-116 106.5t-66.5 133.5t-20.5 153zM358 446q0 -147 102.5 -226t280.5 -79q240 0 363 124.5 t123 338.5q0 87 -30 152.5t-81 102t-112 54t-130 17.5q-121 0 -220 -39t-163 -106t-98.5 -154t-34.5 -185zM489 295q4 -5 12.5 -12.5t40 -20t68.5 -12.5q19 0 37.5 5.5t40 19t38 44.5t22.5 76q9 -8 27 -35.5t35 -51t46.5 -43t61.5 -19.5q50 0 98.5 29.5t48.5 89.5 q-17 23 -39 48t-43.5 47.5t-28.5 31.5q54 23 93.5 69t39.5 105q0 163 -190 163q-103 0 -342 -53q-16 -55 -16 -98q0 -41 18 -49zM776 559l12 82q21 12 56 12q39 0 39 -35q0 -55 -107 -59z" />
<glyph unicode="&#xaf;" horiz-adv-x="1024" d="M346 1210q9 58 67 84.5t193 26.5q62 0 285.5 -6t257.5 -6q-25 -141 -78.5 -207t-150.5 -66q-361 0 -566 25q-15 112 -8 149z" />
<glyph unicode="&#xb0;" horiz-adv-x="825" d="M135 877q0 186 131.5 312t343.5 126q79 0 121.5 -36t42.5 -93q0 -40 -24 -86q64 -3 103.5 -39.5t39.5 -97.5q0 -148 -131.5 -255.5t-327.5 -107.5q-129 0 -214 71t-85 206zM432 922q0 -33 18 -54.5t54 -21.5q110 0 110 178v12q-24 4 -30 4q-62 0 -107 -32t-45 -86z" />
<glyph unicode="&#xb1;" horiz-adv-x="1124" d="M197 37q0 39 13 66.5t35 44t59 25.5t76.5 12t96.5 3q75 0 228 1t194 1q59 0 97 -21.5t38 -68.5q0 -104 -47 -172q-92 6 -160 6q-70 0 -228.5 -4t-272.5 -4q-61 0 -95 29t-34 82zM242 692q0 43 20.5 65.5t83.5 36.5t186 19l64 281q84 20 145 20q90 0 125 -27t35 -92 q0 -49 -20 -166q0 -1 -1 -4.5t-1 -5.5h127q96 0 96 -110q0 -21 -4 -44t-12 -54.5t-11 -45.5l-246 -10q-34 -196 -34 -217q-92 -59 -162 -59q-39 0 -64.5 6.5t-49 24.5t-35 55.5t-11.5 95.5q0 51 4 82l-94 -2q-43 -1 -72.5 10.5t-43.5 35t-19.5 48t-5.5 57.5z" />
<glyph unicode="&#xb2;" horiz-adv-x="917" d="M129 629q0 60 47.5 105.5t110.5 45.5q17 0 67 -8q131 135 131 217q0 12 -0.5 18t-5.5 13.5t-16 7.5q-35 0 -51 -96q-57 -29 -97 -29q-71 0 -105 38.5t-34 96.5q0 99 99.5 172.5t261.5 73.5q78 0 137 -21t92 -55.5t49 -73t16 -79.5q0 -172 -192 -332h37q76 0 135 10 q12 -38 12 -80q0 -59 -38 -102t-90 -61.5t-107 -18.5q-70 0 -193 49q-63 -28 -139 -28q-56 0 -91.5 37.5t-35.5 99.5z" />
<glyph unicode="&#xb3;" horiz-adv-x="874" d="M137 616q0 55 30.5 90t68.5 35q58 -30 92 -30q39 0 59.5 8t26.5 33q-10 -2 -31 -2q-41 0 -62.5 23t-21.5 61q0 60 40 85t114 25q31 27 41 57q-27 -6 -142 -6q-69 0 -97 23t-28 80q0 18 5.5 39.5t11 36t16.5 39.5t14 34q86 -4 88 -4q26 0 112.5 6t156.5 6 q83 0 127.5 -14.5t58.5 -39t14 -68.5q0 -48 -45.5 -115.5t-117.5 -130.5q94 -61 94 -152q0 -123 -99 -198.5t-251 -75.5q-120 0 -197.5 38.5t-77.5 116.5z" />
<glyph unicode="&#xb4;" horiz-adv-x="712" d="M55 1171q55 0 113.5 24.5t104 59.5t84.5 70t67.5 59.5t40.5 24.5q101 0 167 -70.5t66 -140.5q0 -60 -54.5 -104.5t-134.5 -65t-169 -20.5q-110 0 -189.5 33t-89.5 96z" />
<glyph unicode="&#xb5;" d="M-195 -270q0 61 30 185t79 277.5t92.5 280.5t91.5 261.5t54 152.5q52 24 137 41.5t166 17.5q27 0 53.5 -9t49 -35t22.5 -66q0 -54 -84 -318h2q-29 -96 -29 -137q0 -88 100 -88q19 0 47 8q1 146 56 315t139 302q106 32 174 32q232 0 232 -164q0 -64 -35 -154t-70 -172.5 t-35 -127.5t45 -45q68 0 155.5 71.5t155 172t91.5 186.5q209 0 209 -189q0 -58 -32.5 -131.5t-97.5 -150t-151 -141t-206 -105.5t-249 -41q-200 0 -295 92q-144 -94 -284 -94q-48 0 -99 14q-82 -254 -102 -331q-79 -29 -233 -29q-26 0 -53.5 5t-57.5 17t-49 37.5t-19 59.5z " />
<glyph unicode="&#xb6;" horiz-adv-x="1769" d="M143 588q0 118 35 214t96 162t145 111t180 65.5t204 20.5l725 -2q35 0 85.5 5t65.5 5q40 0 58 -19t18 -73q0 -139 -63 -231t-172 -92q-10 -48 -148 -836q-2 -9 -29.5 -24.5t-80 -29.5t-107.5 -14q-70 0 -120 32t-50 81q0 8 2 14l141 777h-114l-148 -830 q-1 -9 -27.5 -25.5t-77 -31t-104.5 -14.5q-47 0 -80.5 8.5t-49.5 22.5t-22.5 27t-6.5 26v8l61 331q-97 0 -170.5 16.5t-119.5 43.5t-75 68t-40 85t-11 99zM489 627q0 -47 24 -80t65 -33q12 0 28 4l43 244h-26q-67 0 -100.5 -40.5t-33.5 -94.5z" />
<glyph unicode="&#xb7;" horiz-adv-x="686" d="M160 424q0 129 92 305q93 19 160 19q132 0 206 -78.5t74 -186.5q0 -110 -77 -190t-218 -80q-118 0 -177.5 55.5t-59.5 155.5z" />
<glyph unicode="&#xb8;" horiz-adv-x="745" d="M47 -256q16 80 90 160q29 -13 94.5 -29t118.5 -16q82 0 90 45q5 28 -3.5 108t-4.5 103q7 45 66 45q84 0 140 -76t34 -197q-28 -155 -132.5 -244t-236.5 -89t-201.5 49.5t-54.5 140.5z" />
<glyph unicode="&#xb9;" horiz-adv-x="831" d="M125 559q0 81 42.5 131.5t104.5 50.5h25q5 60 27 162h-2q-51 0 -85 41t-34 86q0 56 22 98q134 21 224 76q22 34 51 60q55 22 149 22q39 0 74 -30.5t35 -73.5q0 -74 -64 -135q-67 -160 -67 -277v-25q68 3 86 3q14 0 30.5 -21.5t16.5 -48.5q0 -79 -54 -127.5t-131 -48.5 q-29 0 -160 6t-192 6q-70 0 -94 -6q-4 16 -4 51z" />
<glyph unicode="&#xba;" horiz-adv-x="870" d="M96 952q0 104 54 189t140 130.5t183 45.5q90 0 156 -23.5t100 -63.5t49 -81.5t15 -87.5q0 -74 -29 -143q164 62 248 253q59 0 96 -24.5t37 -77.5q0 -73 -49 -143t-132.5 -124t-203.5 -87t-254 -33q-189 0 -299.5 65.5t-110.5 204.5zM385 985q0 -73 72 -96q53 60 53 125 q0 31 -18 46t-39 15q-29 0 -48.5 -22t-19.5 -68z" />
<glyph unicode="&#xbb;" horiz-adv-x="1210" d="M6 219q173 0 350 193q-95 31 -142.5 87.5t-47.5 123.5q0 97 86 175.5t207 78.5q-2 -10 -2 -29q0 -47 27 -89.5t66 -77t78 -69.5t66 -81t27 -97q0 -23 -2 -35q-28 -21 -73 -73t-91 -105t-101.5 -105t-123 -85t-135.5 -33q-64 0 -114.5 62t-74.5 159zM623 219 q173 0 350 193q-95 31 -143 87.5t-48 123.5q0 97 86 175.5t207 78.5q-2 -10 -2 -29q0 -47 27 -89.5t66 -77t78 -69.5t66 -81t27 -97q0 -23 -2 -35q-28 -21 -73 -73t-91 -105t-101.5 -105t-123 -85t-135.5 -33q-64 0 -114 61.5t-74 159.5z" />
<glyph unicode="&#xbc;" horiz-adv-x="2060" d="M125 559q0 81 42.5 131.5t104.5 50.5h25q5 60 27 162h-2q-51 0 -85 41t-34 86q0 56 22 98q134 21 224 76q22 34 51 60q55 22 149 22q39 0 74 -30.5t35 -73.5q0 -74 -64 -135q-67 -160 -67 -277v-25q68 3 86 3q14 0 30.5 -21.5t16.5 -48.5q0 -79 -54 -127.5t-131 -48.5 q-29 0 -160 6t-192 6q-70 0 -94 -6q-4 16 -4 51zM541 41q0 67 74 202.5t181 291.5t215.5 313t191 299t93.5 217q132 -24 190 -61.5t58 -94.5q0 -67 -74.5 -208t-182 -302.5t-215.5 -319.5t-187 -288t-84 -178q-128 0 -194 34t-66 95zM1290 311q0 53 40 206t40 183 q20 21 63 32t87 11q55 0 95 -17t40 -44q0 -29 -31 -130.5t-31 -133.5q0 -31 31 -31q9 0 29 4q19 75 48 173.5t32 109.5q34 47 161 47q47 0 84 -13t50 -30q-17 -42 -73.5 -331.5t-58.5 -340.5q-9 -19 -71 -29t-119 -10q-109 0 -109 88q0 57 13 140q-77 -25 -133 -25 q-88 0 -137.5 42t-49.5 99z" />
<glyph unicode="&#xbd;" horiz-adv-x="2060" d="M125 559q0 81 42.5 131.5t104.5 50.5h25q5 60 27 162h-2q-51 0 -85 41t-34 86q0 56 22 98q134 21 224 76q22 34 51 60q55 22 149 22q39 0 74 -30.5t35 -73.5q0 -74 -64 -135q-67 -160 -67 -277v-25q68 3 86 3q14 0 30.5 -21.5t16.5 -48.5q0 -79 -54 -127.5t-131 -48.5 q-29 0 -160 6t-192 6q-70 0 -94 -6q-4 16 -4 51zM541 41q0 67 74 202.5t181 291.5t215.5 313t191 299t93.5 217q132 -24 190 -61.5t58 -94.5q0 -67 -74.5 -208t-182 -302.5t-215.5 -319.5t-187 -288t-84 -178q-128 0 -194 34t-66 95zM1280 86q0 64 45 114t123 50q11 0 35 -4 q137 141 137 223q0 39 -23 39q-35 0 -51 -96q-57 -29 -96 -29q-51 0 -75.5 37t-24.5 94q0 39 19 81t56 80.5t101.5 63.5t144.5 25q78 0 137 -21t92.5 -55.5t49.5 -73t16 -79.5q0 -90 -55.5 -178t-149.5 -164h49q77 0 136 10q12 -37 12 -70q0 -59 -38 -102t-90 -61.5 t-108 -18.5q-69 0 -192 49q-72 -29 -139 -29q-53 0 -82 33t-29 82z" />
<glyph unicode="&#xbe;" horiz-adv-x="2060" d="M160 616q0 55 25 82t63 27q60 -31 92 -31q82 0 96 58q-10 -2 -30 -2q-41 0 -62.5 23t-21.5 61q0 60 39.5 85t113.5 25q31 27 41 57q-27 -6 -141 -6q-69 0 -97 23t-28 80q0 83 45 151q35 -6 67 -6q26 0 112.5 6t156.5 6q83 0 127.5 -14.5t58.5 -39t14 -68.5 q0 -49 -42 -117t-109 -129q82 -59 82 -152q0 -123 -99 -198.5t-251 -75.5q-117 0 -184.5 37.5t-67.5 117.5zM541 41q0 67 74 202.5t181 291.5t215.5 313t191 299t93.5 217q132 -24 190 -61.5t58 -94.5q0 -67 -74.5 -208t-182 -302.5t-215.5 -319.5t-187 -288t-84 -178 q-128 0 -194 34t-66 95zM1290 311q0 53 40 206t40 183q20 21 63 32t87 11q55 0 95 -17t40 -44q0 -29 -31 -130.5t-31 -133.5q0 -31 31 -31q9 0 29 4q19 75 48 173.5t32 109.5q34 47 161 47q47 0 84 -13t50 -30q-17 -42 -73.5 -331.5t-58.5 -340.5q-9 -19 -71 -29t-119 -10 q-109 0 -109 88q0 57 13 140q-77 -25 -133 -25q-88 0 -137.5 42t-49.5 99z" />
<glyph unicode="&#xbf;" horiz-adv-x="1044" d="M-51 -207q0 66 23.5 119t62.5 91t87.5 71t100 67t97.5 70.5t84 89.5t55 117q42 16 110 25.5t113 9.5q65 0 103 -29.5t38 -89.5q0 -13 -4 -41q-10 -59 -39 -107.5t-67 -80t-81.5 -57t-84.5 -45t-75 -37.5t-54.5 -40.5t-20.5 -48.5q0 -21 23 -30t76 -9q73 0 157 55.5 t117 139.5q72 -32 107.5 -94.5t35.5 -133.5q0 -79 -43.5 -145t-115 -107.5t-160 -64.5t-182.5 -23q-97 0 -177.5 18t-146 55.5t-102.5 102.5t-37 152zM451 676q0 98 72 159.5t206 61.5q113 0 161 -43t48 -131q0 -40 -10 -98q-47 -33 -77.5 -50t-82.5 -31t-115 -14 q-97 0 -149.5 39t-52.5 107z" />
<glyph unicode="&#xc0;" horiz-adv-x="1263" d="M-6 133q0 102 84 304.5t190 404.5q-39 10 -56 41t-17 69q0 55 30.5 130.5t64.5 126.5t48 51q46 0 198.5 3t204.5 3q80 0 139 -6.5t120 -27.5t100 -56.5t63.5 -98.5t24.5 -149q0 -82 -40.5 -203.5t-81 -218t-40.5 -117.5t10.5 -34t28.5 -13q66 0 154.5 52t169 147.5 t110.5 201.5q83 -3 144 -63.5t61 -149.5q0 -103 -76.5 -209.5t-194.5 -187t-269 -131.5t-292 -51t-205.5 78t-64.5 207q0 34 6 75l-125 -4l-67 -233q-83 -80 -242 -80q-72 0 -126 35t-54 104zM408 1591q12 70 74.5 130.5t156.5 60.5q12 0 40.5 -24.5t67.5 -59.5t84.5 -70 t104 -59.5t113.5 -24.5l-7 -35q-7 -42 -48.5 -72t-100.5 -43.5t-129 -13.5q-95 0 -178.5 23.5t-136 73t-41.5 114.5zM551 532l117 7q9 28 26.5 77t26.5 74.5t16.5 54.5t7.5 46q0 31 -24.5 48t-69.5 17h-4z" />
<glyph unicode="&#xc1;" horiz-adv-x="1263" d="M-6 133q0 102 84 304.5t190 404.5q-39 10 -56 41t-17 69q0 55 30.5 130.5t64.5 126.5t48 51q46 0 198.5 3t204.5 3q80 0 139 -6.5t120 -27.5t100 -56.5t63.5 -98.5t24.5 -149q0 -82 -40.5 -203.5t-81 -218t-40.5 -117.5t10.5 -34t28.5 -13q66 0 154.5 52t169 147.5 t110.5 201.5q83 -3 144 -63.5t61 -149.5q0 -103 -76.5 -209.5t-194.5 -187t-269 -131.5t-292 -51t-205.5 78t-64.5 207q0 34 6 75l-125 -4l-67 -233q-83 -80 -242 -80q-72 0 -126 35t-54 104zM489 1532q55 0 113.5 24.5t104 59t84.5 69.5t67.5 59.5t40.5 24.5 q101 0 167.5 -70.5t66.5 -139.5q0 -60 -54.5 -104.5t-135 -65.5t-169.5 -21q-110 0 -189 33t-89 96zM551 532l117 7q9 28 26.5 77t26.5 74.5t16.5 54.5t7.5 46q0 31 -24.5 48t-69.5 17h-4z" />
<glyph unicode="&#xc2;" horiz-adv-x="1263" d="M-6 133q0 102 84 304.5t190 404.5q-39 10 -56 41t-17 69q0 55 30.5 130.5t64.5 126.5t48 51q46 0 198.5 3t204.5 3q80 0 139 -6.5t120 -27.5t100 -56.5t63.5 -98.5t24.5 -149q0 -82 -40.5 -203.5t-81 -218t-40.5 -117.5t10.5 -34t28.5 -13q66 0 154.5 52t169 147.5 t110.5 201.5q83 -3 144 -63.5t61 -149.5q0 -103 -76.5 -209.5t-194.5 -187t-269 -131.5t-292 -51t-205.5 78t-64.5 207q0 34 6 75l-125 -4l-67 -233q-83 -80 -242 -80q-72 0 -126 35t-54 104zM414 1513q62 27 130.5 68t133.5 101.5t74 111.5q93 29 133 29q66 0 109 -33 t64 -79.5t39.5 -93t49.5 -79.5t80 -33q-18 -72 -89.5 -112.5t-166.5 -40.5q-65 0 -109.5 33t-50.5 98q-40 -60 -110.5 -96.5t-139.5 -36.5q-147 0 -147 163zM551 532l117 7q9 28 26.5 77t26.5 74.5t16.5 54.5t7.5 46q0 31 -24.5 48t-69.5 17h-4z" />
<glyph unicode="&#xc3;" horiz-adv-x="1263" d="M-6 133q0 102 84 304.5t190 404.5q-39 10 -56 41t-17 69q0 55 30.5 130.5t64.5 126.5t48 51q46 0 198.5 3t204.5 3q80 0 139 -6.5t120 -27.5t100 -56.5t63.5 -98.5t24.5 -149q0 -82 -40.5 -203.5t-81 -218t-40.5 -117.5t10.5 -34t28.5 -13q66 0 154.5 52t169 147.5 t110.5 201.5q83 -3 144 -63.5t61 -149.5q0 -103 -76.5 -209.5t-194.5 -187t-269 -131.5t-292 -51t-205.5 78t-64.5 207q0 34 6 75l-125 -4l-67 -233q-83 -80 -242 -80q-72 0 -126 35t-54 104zM426 1432q0 256 260 256q50 0 167 -29t181 -29q137 0 207 49q4 -36 4 -53 q0 -146 -75.5 -206t-213.5 -60q-61 0 -169 26.5t-152 26.5q-53 0 -109.5 -13.5t-91.5 -35.5q-8 27 -8 68zM551 532l117 7q9 28 26.5 77t26.5 74.5t16.5 54.5t7.5 46q0 31 -24.5 48t-69.5 17h-4z" />
<glyph unicode="&#xc4;" horiz-adv-x="1263" d="M-6 133q0 102 84 304.5t190 404.5q-39 10 -56 41t-17 69q0 55 30.5 130.5t64.5 126.5t48 51q46 0 198.5 3t204.5 3q80 0 139 -6.5t120 -27.5t100 -56.5t63.5 -98.5t24.5 -149q0 -82 -40.5 -203.5t-81 -218t-40.5 -117.5t10.5 -34t28.5 -13q66 0 154.5 52t169 147.5 t110.5 201.5q83 -3 144 -63.5t61 -149.5q0 -103 -76.5 -209.5t-194.5 -187t-269 -131.5t-292 -51t-205.5 78t-64.5 207q0 34 6 75l-125 -4l-67 -233q-83 -80 -242 -80q-72 0 -126 35t-54 104zM358 1497q7 27 25.5 56.5t49.5 60t81.5 50t110.5 19.5q71 0 151 -28 q6 -59 -4 -113q-16 -95 -77 -147t-136 -52q-68 0 -122.5 39t-78.5 115zM551 532l117 7q9 28 26.5 77t26.5 74.5t16.5 54.5t7.5 46q0 31 -24.5 48t-69.5 17h-4zM852 1497q7 27 25.5 56.5t49 60t81 50t110.5 19.5q72 0 152 -28q6 -59 -4 -113q-16 -95 -77 -147t-136 -52 q-68 0 -122.5 39t-78.5 115z" />
<glyph unicode="&#xc5;" horiz-adv-x="1263" d="M-6 133q0 102 84 304.5t190 404.5q-39 10 -56 41t-17 69q0 55 30.5 130.5t64.5 126.5t48 51q46 0 198.5 3t204.5 3q80 0 139 -6.5t120 -27.5t100 -56.5t63.5 -98.5t24.5 -149q0 -82 -40.5 -203.5t-81 -218t-40.5 -117.5t10.5 -34t28.5 -13q66 0 154.5 52t169 147.5 t110.5 201.5q83 -3 144 -63.5t61 -149.5q0 -103 -76.5 -209.5t-194.5 -187t-269 -131.5t-292 -51t-205.5 78t-64.5 207q0 34 6 75l-125 -4l-67 -233q-83 -80 -242 -80q-72 0 -126 35t-54 104zM535 1530q0 38 24.5 83.5t68 87t114.5 69.5t153 28q128 0 209.5 -55t81.5 -131 q0 -102 -87.5 -179.5t-187.5 -82.5q-58 -21 -110 -21q-108 0 -187 59t-79 142zM551 532l117 7q9 28 26.5 77t26.5 74.5t16.5 54.5t7.5 46q0 31 -24.5 48t-69.5 17h-4zM825 1534q21 -25 49 -25q22 0 43 20t21 60q0 35 -47 35q-66 0 -66 -76v-14z" />
<glyph unicode="&#xc6;" horiz-adv-x="1599" d="M-6 133q0 102 84 304.5t190 404.5q-39 10 -56 41t-17 69q0 55 30.5 130.5t64.5 126.5t48 51q46 0 198.5 3t204.5 3q168 0 238 -76q138 78 315 78q55 0 128.5 -1t93.5 -1q45 0 59 2q33 -16 33 -121q0 -89 -16.5 -169.5t-53 -137t-84.5 -56.5q-36 0 -96.5 11.5t-97.5 11.5 q-60 0 -88.5 -30.5t-28.5 -76.5v-12q49 6 90 6q61 0 90 -24.5t29 -53.5q0 -39 -9 -74.5t-29 -69.5t-58.5 -54.5t-90.5 -20.5q-45 0 -102 11q-23 -41 -23 -74q0 -27 22.5 -40t76.5 -13q84 0 186 44t187 108.5t149.5 139.5t81.5 136q151 0 151 -150q0 -65 -44 -147.5 t-128 -166t-193 -153.5t-253.5 -114t-294.5 -44q-387 0 -387 310q0 37 6 67l-117 -4l-67 -233q-83 -80 -242 -80q-72 0 -126 35t-54 104zM551 532l117 7q9 28 26.5 77t26.5 74.5t16.5 54.5t7.5 46v6q-6 59 -94 59h-4z" />
<glyph unicode="&#xc7;" horiz-adv-x="1206" d="M-27 -319q15 78 90 159q29 -13 94.5 -29t118.5 -16q83 0 91 45q4 18 0 74q-180 19 -264.5 124t-84.5 267q0 133 41 271.5t117 260t175 217.5t224 152t254 56q150 0 244 -69t94 -196q0 -120 -53.5 -230.5t-142.5 -178.5t-187 -68q-58 0 -99.5 34t-41.5 79q0 19 55.5 102 t55.5 99q0 10 -5.5 19t-15.5 9q-25 0 -77.5 -68t-97 -165t-44.5 -164q0 -63 43.5 -101t136.5 -38q45 0 110 15t144 47.5t153 76.5t139.5 109t100.5 139q69 0 100.5 -27t31.5 -108q0 -133 -123.5 -275t-326.5 -247t-421 -136q4 -52 -4 -96q-28 -155 -132.5 -244.5 t-236.5 -89.5q-131 0 -201 50t-55 141z" />
<glyph unicode="&#xc8;" horiz-adv-x="1067" d="M0 244q0 209 231 334q-79 106 -79 229q0 106 54.5 195t142.5 146t195 88.5t216 31.5q55 0 128 -1t93 -1q45 0 59 2q33 -16 33 -121q0 -65 -10 -128.5t-28 -116.5t-48 -85.5t-67 -32.5q-36 0 -97 11.5t-98 11.5q-60 0 -88.5 -30.5t-28.5 -76.5v-12q52 6 90 6 q61 0 90 -24.5t29 -53.5q0 -39 -9 -74.5t-28.5 -69.5t-58 -54.5t-90.5 -20.5q-53 0 -103 9q-22 -39 -22 -72q0 -27 22 -40t76 -13q84 0 186 44t187 108.5t149.5 139.5t81.5 136q152 0 152 -150q0 -65 -44 -147.5t-128.5 -166t-193.5 -153.5t-253.5 -114t-294.5 -44 q-128 0 -226.5 32.5t-159 104t-60.5 173.5zM438 1532q12 70 75 130t157 60q12 0 40.5 -24.5t67 -59t84 -69.5t104 -59.5t113.5 -24.5l-6 -35q-7 -42 -48.5 -72t-100.5 -43.5t-129 -13.5q-95 0 -178.5 23.5t-136.5 73t-42 114.5z" />
<glyph unicode="&#xc9;" horiz-adv-x="1067" d="M0 244q0 209 231 334q-79 106 -79 229q0 106 54.5 195t142.5 146t195 88.5t216 31.5q55 0 128 -1t93 -1q45 0 59 2q33 -16 33 -121q0 -65 -10 -128.5t-28 -116.5t-48 -85.5t-67 -32.5q-36 0 -97 11.5t-98 11.5q-60 0 -88.5 -30.5t-28.5 -76.5v-12q52 6 90 6 q61 0 90 -24.5t29 -53.5q0 -39 -9 -74.5t-28.5 -69.5t-58 -54.5t-90.5 -20.5q-53 0 -103 9q-22 -39 -22 -72q0 -27 22 -40t76 -13q84 0 186 44t187 108.5t149.5 139.5t81.5 136q152 0 152 -150q0 -65 -44 -147.5t-128.5 -166t-193.5 -153.5t-253.5 -114t-294.5 -44 q-128 0 -226.5 32.5t-159 104t-60.5 173.5zM463 1493q55 0 113.5 24.5t104 59.5t84 70t67 59.5t40.5 24.5q101 0 167.5 -70.5t66.5 -140.5q0 -60 -54.5 -104.5t-134.5 -65.5t-169 -21q-110 0 -189.5 33t-89.5 96z" />
<glyph unicode="&#xca;" horiz-adv-x="1067" d="M0 244q0 209 231 334q-79 106 -79 229q0 106 54.5 195t142.5 146t195 88.5t216 31.5q55 0 128 -1t93 -1q45 0 59 2q33 -16 33 -121q0 -65 -10 -128.5t-28 -116.5t-48 -85.5t-67 -32.5q-36 0 -97 11.5t-98 11.5q-60 0 -88.5 -30.5t-28.5 -76.5v-12q52 6 90 6 q61 0 90 -24.5t29 -53.5q0 -39 -9 -74.5t-28.5 -69.5t-58 -54.5t-90.5 -20.5q-53 0 -103 9q-22 -39 -22 -72q0 -27 22 -40t76 -13q84 0 186 44t187 108.5t149.5 139.5t81.5 136q152 0 152 -150q0 -65 -44 -147.5t-128.5 -166t-193.5 -153.5t-253.5 -114t-294.5 -44 q-128 0 -226.5 32.5t-159 104t-60.5 173.5zM385 1495q62 27 130.5 68t133.5 101.5t74 111.5q90 28 133 28q56 0 95.5 -23.5t59.5 -58.5t38.5 -76.5t33.5 -76.5t44.5 -58.5t70.5 -23.5q-18 -73 -90 -113.5t-166 -40.5q-65 0 -109.5 33t-50.5 98q-40 -60 -110.5 -96.5 t-139.5 -36.5q-147 0 -147 164z" />
<glyph unicode="&#xcb;" horiz-adv-x="1067" d="M0 244q0 209 231 334q-79 106 -79 229q0 106 54.5 195t142.5 146t195 88.5t216 31.5q55 0 128 -1t93 -1q45 0 59 2q33 -16 33 -121q0 -65 -10 -128.5t-28 -116.5t-48 -85.5t-67 -32.5q-36 0 -97 11.5t-98 11.5q-60 0 -88.5 -30.5t-28.5 -76.5v-12q52 6 90 6 q61 0 90 -24.5t29 -53.5q0 -39 -9 -74.5t-28.5 -69.5t-58 -54.5t-90.5 -20.5q-53 0 -103 9q-22 -39 -22 -72q0 -27 22 -40t76 -13q84 0 186 44t187 108.5t149.5 139.5t81.5 136q152 0 152 -150q0 -65 -44 -147.5t-128.5 -166t-193.5 -153.5t-253.5 -114t-294.5 -44 q-128 0 -226.5 32.5t-159 104t-60.5 173.5zM283 1481q7 27 25.5 56.5t49 60t81 50t110.5 19.5q68 0 151 -29q6 -59 -4 -112q-16 -95 -77 -147t-136 -52q-68 0 -122 39t-78 115zM776 1481q7 27 25.5 56.5t49 60t81 50t110.5 19.5q69 0 152 -29q6 -59 -4 -112 q-16 -95 -77 -147t-136 -52q-68 0 -122.5 39t-78.5 115z" />
<glyph unicode="&#xcc;" horiz-adv-x="1083" d="M59 135q0 68 40.5 117t97 69.5t118.5 20.5h21q55 303 166 522q-23 2 -66 2q-168 0 -237 -30q-62 51 -96.5 124.5t-34.5 135.5q0 100 84 149t227 49q220 0 452 -65q87 41 187 41q46 0 81.5 -16t56.5 -40t34.5 -56t18.5 -59.5t5 -54.5q0 -75 -71.5 -137.5t-188.5 -66.5 q-74 -329 -174 -539q168 -14 226 -14q77 0 77 -97q0 -20 -9.5 -50.5t-33.5 -68.5t-59 -70.5t-92.5 -54.5t-126.5 -22q-85 0 -217 66q-105 -78 -228 -78q-126 0 -192 61.5t-66 161.5zM406 1546q12 70 74.5 130.5t156.5 60.5q12 0 40.5 -24.5t67.5 -59.5t84.5 -70t104 -59.5 t113.5 -24.5l-7 -35q-7 -42 -48.5 -72t-100.5 -43.5t-129 -13.5q-95 0 -178.5 23.5t-136 73t-41.5 114.5z" />
<glyph unicode="&#xcd;" horiz-adv-x="1083" d="M59 135q0 68 40.5 117t97 69.5t118.5 20.5h21q55 303 166 522q-23 2 -66 2q-168 0 -237 -30q-62 51 -96.5 124.5t-34.5 135.5q0 100 84 149t227 49q220 0 452 -65q87 41 187 41q46 0 81.5 -16t56.5 -40t34.5 -56t18.5 -59.5t5 -54.5q0 -75 -71.5 -137.5t-188.5 -66.5 q-74 -329 -174 -539q168 -14 226 -14q77 0 77 -97q0 -20 -9.5 -50.5t-33.5 -68.5t-59 -70.5t-92.5 -54.5t-126.5 -22q-85 0 -217 66q-105 -78 -228 -78q-126 0 -192 61.5t-66 161.5zM608 1497q55 0 113.5 24.5t104 59.5t84.5 70t67.5 59.5t40.5 24.5q101 0 167 -70.5 t66 -140.5q0 -60 -54.5 -104.5t-134.5 -65.5t-169 -21q-110 0 -189.5 33t-89.5 96z" />
<glyph unicode="&#xce;" horiz-adv-x="1083" d="M59 135q0 68 40.5 117t97 69.5t118.5 20.5h21q55 303 166 522q-23 2 -66 2q-168 0 -237 -30q-62 51 -96.5 124.5t-34.5 135.5q0 100 84 149t227 49q220 0 452 -65q87 41 187 41q46 0 81.5 -16t56.5 -40t34.5 -56t18.5 -59.5t5 -54.5q0 -75 -71.5 -137.5t-188.5 -66.5 q-74 -329 -174 -539q168 -14 226 -14q77 0 77 -97q0 -20 -9.5 -50.5t-33.5 -68.5t-59 -70.5t-92.5 -54.5t-126.5 -22q-85 0 -217 66q-105 -78 -228 -78q-126 0 -192 61.5t-66 161.5zM459 1487q62 27 130.5 67.5t133.5 101t74 111.5q93 29 133 29q56 0 95.5 -23.5t59.5 -58.5 t38.5 -76.5t33.5 -76.5t44.5 -58.5t70.5 -23.5q-18 -73 -90 -113.5t-166 -40.5q-65 0 -109.5 33t-50.5 98q-40 -60 -110.5 -96.5t-139.5 -36.5q-147 0 -147 164z" />
<glyph unicode="&#xcf;" horiz-adv-x="1083" d="M59 135q0 68 40.5 117t97 69.5t118.5 20.5h21q55 303 166 522q-23 2 -66 2q-168 0 -237 -30q-62 51 -96.5 124.5t-34.5 135.5q0 100 84 149t227 49q220 0 452 -65q87 41 187 41q46 0 81.5 -16t56.5 -40t34.5 -56t18.5 -59.5t5 -54.5q0 -75 -71.5 -137.5t-188.5 -66.5 q-74 -329 -174 -539q168 -14 226 -14q77 0 77 -97q0 -20 -9.5 -50.5t-33.5 -68.5t-59 -70.5t-92.5 -54.5t-126.5 -22q-85 0 -217 66q-105 -78 -228 -78q-126 0 -192 61.5t-66 161.5zM412 1479q7 27 25.5 56.5t49 60t81 50t110.5 19.5q68 0 151 -29q6 -59 -4 -112 q-16 -95 -77 -147t-136 -52q-68 0 -122 39t-78 115zM905 1479q7 27 25.5 56.5t49 60t81 50t110.5 19.5q69 0 152 -29q6 -59 -4 -112q-16 -95 -77 -147t-136 -52q-68 0 -122.5 39t-78.5 115z" />
<glyph unicode="&#xd0;" horiz-adv-x="1327" d="M-10 180q0 97 52 170.5t124 73.5h10l23 61h-160q-23 0 -23 25q0 43 31 95t64 52q75 8 165 13l33 65q-16 -2 -45 -2q-90 0 -90 146q0 65 18 144.5t39.5 131t34.5 51.5q98 0 247 30t251 30q115 0 210.5 -39t157 -106t95 -153.5t33.5 -183.5q0 -182 -66 -344.5t-178 -278.5 t-268 -183.5t-330 -67.5q-222 0 -325 72.5t-103 197.5zM510 291h6q84 0 152 64.5t101.5 150t33.5 164.5q0 65 -27 104t-80 39q-3 0 -9.5 -1t-10.5 -1l-41 -143q46 -6 65 -19t19 -37q0 -16 -14.5 -59.5t-34.5 -67.5h-95z" />
<glyph unicode="&#xd1;" horiz-adv-x="1581" d="M4 840q0 43 24 88.5t73 87t114.5 74.5t156 53t191.5 20h90q77 115 178 115q14 0 28.5 -1.5t39 -10t42 -22.5t31 -43t13.5 -68q0 -73 -51 -117q24 -241 141 -488q19 252 81 455.5t153.5 320.5t195.5 117q89 0 151.5 -88.5t65.5 -199.5q-116 -216 -235 -508.5t-158 -507.5 q57 -80 57 -107q0 -40 -6.5 -69t-24 -56.5t-55 -42t-94.5 -14.5q-82 0 -159.5 62.5t-130 153t-87 177.5t-43.5 150q-4 -52 -14.5 -101.5t-33.5 -104t-55.5 -95t-85 -67t-118.5 -26.5q-99 0 -171 60t-72 121q0 32 12 52.5t33 20.5q29 0 54 20t45 59t37 84t34 109.5t30 121 t31 131.5t33 129q-99 -40 -162 -111t-80 -196q-35 3 -71 11t-78 27.5t-74.5 47.5t-54 73.5t-21.5 102.5zM625 1419q0 256 260 256q50 0 167 -28.5t181 -28.5q137 0 207 49q4 -36 4 -53q0 -146 -75.5 -206t-213.5 -60q-61 0 -169 26.5t-152 26.5q-53 0 -109.5 -13.5 t-91.5 -35.5q-8 27 -8 67z" />
<glyph unicode="&#xd2;" d="M10 432q0 -124 33 -219t86 -153t129 -94.5t153 -50t167 -13.5q204 0 382 42t301.5 111t213 156t132 178t42.5 176q0 61 -56.5 125t-136.5 64q-61 -178 -191 -303t-298 -183q107 119 170 271.5t63 308.5q0 191 -121 308.5t-307 117.5q-148 0 -290 -74.5t-244.5 -193 t-165 -271t-62.5 -303.5zM473 457q0 80 40.5 172.5t94 151.5t92.5 59q26 0 38 -15.5t12 -38.5q0 -226 -234 -477q-43 56 -43 148zM512 1544q12 70 74.5 130.5t156.5 60.5q12 0 40.5 -24.5t67.5 -59.5t84.5 -70t104 -59.5t113.5 -24.5l-6 -35q-7 -42 -48.5 -72t-101 -43.5 t-129.5 -13.5q-95 0 -178.5 23.5t-136 73t-41.5 114.5z" />
<glyph unicode="&#xd3;" d="M10 432q0 151 62.5 303.5t165 271t244.5 193t290 74.5q186 0 307 -117.5t121 -308.5q0 -156 -63 -308.5t-170 -271.5q168 58 298 183t191 303q80 0 136.5 -64t56.5 -125q0 -85 -42.5 -176t-132 -178t-213 -156t-301.5 -111t-382 -42q-90 0 -167 13.5t-153 50t-129 94.5 t-86 153t-33 219zM473 457q0 -92 43 -148q234 251 234 477q0 23 -12 38.5t-38 15.5q-39 0 -92.5 -59t-94 -151.5t-40.5 -172.5zM549 1499q55 0 113.5 24.5t104 59.5t84 70t67 59.5t40.5 24.5q101 0 167.5 -70.5t66.5 -140.5q0 -60 -54.5 -104.5t-134.5 -65.5t-169 -21 q-110 0 -189.5 33t-89.5 96z" />
<glyph unicode="&#xd4;" d="M10 432q0 -124 33 -219t86 -153t129 -94.5t153 -50t167 -13.5q204 0 382 42t301.5 111t213 156t132 178t42.5 176q0 61 -56.5 125t-136.5 64q-61 -178 -191 -303t-298 -183q107 119 170 271.5t63 308.5q0 191 -121 308.5t-307 117.5q-148 0 -290 -74.5t-244.5 -193 t-165 -271t-62.5 -303.5zM434 1466q62 27 130.5 68t133.5 101.5t74 111.5q93 29 133 29q66 0 109 -33t64 -79.5t39.5 -93t49.5 -79.5t80 -33q-18 -72 -89.5 -112.5t-166.5 -40.5q-65 0 -109.5 33t-50.5 98q-40 -60 -110 -96.5t-139 -36.5q-148 0 -148 163zM473 457 q0 80 40.5 172.5t94 151.5t92.5 59q26 0 38 -15.5t12 -38.5q0 -226 -234 -477q-43 56 -43 148z" />
<glyph unicode="&#xd5;" d="M10 432q0 -124 33 -219t86 -153t129 -94.5t153 -50t167 -13.5q204 0 382 42t301.5 111t213 156t132 178t42.5 176q0 61 -56.5 125t-136.5 64q-61 -178 -191 -303t-298 -183q107 119 170 271.5t63 308.5q0 191 -121 308.5t-307 117.5q-148 0 -290 -74.5t-244.5 -193 t-165 -271t-62.5 -303.5zM453 1393q0 256 260 256q50 0 167 -29t181 -29q137 0 207 49q4 -36 4 -53q0 -146 -75.5 -206t-213.5 -60q-61 0 -169 26.5t-152 26.5q-53 0 -109.5 -13.5t-91.5 -35.5q-8 27 -8 68zM473 457q0 80 40.5 172.5t94 151.5t92.5 59q26 0 38 -15.5 t12 -38.5q0 -226 -234 -477q-43 56 -43 148z" />
<glyph unicode="&#xd6;" d="M10 432q0 -124 33 -219t86 -153t129 -94.5t153 -50t167 -13.5q204 0 382 42t301.5 111t213 156t132 178t42.5 176q0 61 -56.5 125t-136.5 64q-61 -178 -191 -303t-298 -183q107 119 170 271.5t63 308.5q0 191 -121 308.5t-307 117.5q-148 0 -290 -74.5t-244.5 -193 t-165 -271t-62.5 -303.5zM395 1481q7 27 25.5 56.5t49.5 60t81.5 50t110.5 19.5q68 0 151 -29q6 -59 -4 -112q-16 -95 -77 -147t-136 -52q-68 0 -122.5 39t-78.5 115zM473 457q0 80 40.5 172.5t94 151.5t92.5 59q26 0 38 -15.5t12 -38.5q0 -226 -234 -477q-43 56 -43 148z M889 1481q7 27 25.5 56.5t49 60t81 50t110.5 19.5q69 0 152 -29q6 -59 -4 -112q-16 -95 -77 -147t-136 -52q-68 0 -122.5 39t-78.5 115z" />
<glyph unicode="&#xd7;" horiz-adv-x="1024" d="M117 244q0 78 74 149.5t184 120.5q-101 124 -174 143q36 97 100 148t117 51q71 0 128.5 -58t90.5 -147q148 123 182 205q81 -17 123.5 -75.5t42.5 -112.5q0 -78 -69.5 -145t-174.5 -111q98 -121 174 -140q-36 -96 -92.5 -141t-109.5 -45q-72 0 -134 55.5t-98 139.5 q-151 -129 -184 -207q-83 18 -131.5 68.5t-48.5 101.5z" />
<glyph unicode="&#xd8;" horiz-adv-x="1280" d="M10 432q0 151 62.5 303.5t165 271t244.5 193t290 74.5q32 0 90 -8q47 75 56 96q132 -24 189.5 -61.5t57.5 -94.5q0 -41 -32 -116q67 -103 67 -242q0 -156 -63 -308.5t-170 -271.5q168 58 298 183t191 303q80 0 136.5 -64t56.5 -125q0 -85 -42.5 -176t-132 -178t-213 -156 t-301.5 -111t-382 -42q-119 0 -220 26q-38 -66 -41 -98q-122 0 -181.5 46.5t-59.5 113.5q0 43 24 104q-90 126 -90 338zM473 457q0 -92 43 -148q234 251 234 477q0 23 -12 38.5t-38 15.5q-39 0 -92.5 -59t-94 -151.5t-40.5 -172.5z" />
<glyph unicode="&#xd9;" horiz-adv-x="1359" d="M27 244q0 84 24.5 176.5t54 156.5t54 126t24.5 92q-43 0 -74.5 22t-47 56t-22.5 66.5t-7 61.5q0 51 23 99t67.5 88.5t118.5 65t166 24.5q154 0 219 -60.5t65 -168.5q0 -73 -26 -174t-58 -183.5t-58 -167t-26 -127.5q0 -47 41 -47q35 0 107 31q14 148 60 304t107.5 281 t137.5 205t147 80q105 0 162 -62.5t57 -187.5q-42 -39 -138.5 -302.5t-96.5 -333.5q0 -21 11.5 -34.5t31.5 -13.5q34 0 91 32t117 84t115 127.5t80 152.5q84 -3 134.5 -54.5t50.5 -123.5q0 -104 -67.5 -214.5t-176 -197.5t-255.5 -143t-294 -56q-177 0 -239 121 q-180 -86 -347 -86q-155 0 -244 81t-89 204zM492 1503q12 70 74.5 130.5t156.5 60.5q12 0 40.5 -24.5t67.5 -59.5t84.5 -70t104 -59.5t113.5 -24.5l-7 -35q-7 -42 -48.5 -72t-100.5 -43.5t-129 -13.5q-95 0 -178.5 23.5t-136 73t-41.5 114.5z" />
<glyph unicode="&#xda;" horiz-adv-x="1359" d="M27 244q0 84 24.5 176.5t54 156.5t54 126t24.5 92q-43 0 -74.5 22t-47 56t-22.5 66.5t-7 61.5q0 51 23 99t67.5 88.5t118.5 65t166 24.5q154 0 219 -60.5t65 -168.5q0 -73 -26 -174t-58 -183.5t-58 -167t-26 -127.5q0 -47 41 -47q35 0 107 31q14 148 60 304t107.5 281 t137.5 205t147 80q105 0 162 -62.5t57 -187.5q-42 -39 -138.5 -302.5t-96.5 -333.5q0 -21 11.5 -34.5t31.5 -13.5q34 0 91 32t117 84t115 127.5t80 152.5q84 -3 134.5 -54.5t50.5 -123.5q0 -104 -67.5 -214.5t-176 -197.5t-255.5 -143t-294 -56q-177 0 -239 121 q-180 -86 -347 -86q-155 0 -244 81t-89 204zM561 1446q55 0 113.5 24.5t104 59t84.5 69.5t67.5 59.5t40.5 24.5q101 0 167 -70t66 -140q0 -60 -54.5 -104.5t-134.5 -65.5t-169 -21q-110 0 -189.5 33t-89.5 96z" />
<glyph unicode="&#xdb;" horiz-adv-x="1359" d="M27 244q0 84 24.5 176.5t54 156.5t54 126t24.5 92q-43 0 -74.5 22t-47 56t-22.5 66.5t-7 61.5q0 51 23 99t67.5 88.5t118.5 65t166 24.5q154 0 219 -60.5t65 -168.5q0 -73 -26 -174t-58 -183.5t-58 -167t-26 -127.5q0 -47 41 -47q35 0 107 31q14 148 60 304t107.5 281 t137.5 205t147 80q105 0 162 -62.5t57 -187.5q-42 -39 -138.5 -302.5t-96.5 -333.5q0 -21 11.5 -34.5t31.5 -13.5q34 0 91 32t117 84t115 127.5t80 152.5q84 -3 134.5 -54.5t50.5 -123.5q0 -104 -67.5 -214.5t-176 -197.5t-255.5 -143t-294 -56q-177 0 -239 121 q-180 -86 -347 -86q-155 0 -244 81t-89 204zM446 1466q62 27 130.5 68t133.5 101.5t74 111.5q93 29 134 29q66 0 109 -33t64 -79.5t39.5 -93t49.5 -79.5t80 -33q-18 -72 -89.5 -112.5t-166.5 -40.5q-65 0 -109.5 33t-50.5 98q-40 -60 -110.5 -96.5t-139.5 -36.5 q-148 0 -148 163z" />
<glyph unicode="&#xdc;" horiz-adv-x="1359" d="M27 244q0 84 24.5 176.5t54 156.5t54 126t24.5 92q-43 0 -74.5 22t-47 56t-22.5 66.5t-7 61.5q0 51 23 99t67.5 88.5t118.5 65t166 24.5q154 0 219 -60.5t65 -168.5q0 -73 -26 -174t-58 -183.5t-58 -167t-26 -127.5q0 -47 41 -47q35 0 107 31q14 148 60 304t107.5 281 t137.5 205t147 80q105 0 162 -62.5t57 -187.5q-42 -39 -138.5 -302.5t-96.5 -333.5q0 -21 11.5 -34.5t31.5 -13.5q34 0 91 32t117 84t115 127.5t80 152.5q84 -3 134.5 -54.5t50.5 -123.5q0 -104 -67.5 -214.5t-176 -197.5t-255.5 -143t-294 -56q-177 0 -239 121 q-180 -86 -347 -86q-155 0 -244 81t-89 204zM412 1458q7 27 25.5 56.5t49 60t81 50.5t110.5 20q68 0 151 -29q6 -59 -4 -113q-16 -95 -77 -146.5t-136 -51.5q-68 0 -122 38.5t-78 114.5zM905 1458q7 27 25.5 56.5t49 60t81 50.5t110.5 20q69 0 152 -29q6 -59 -4 -113 q-16 -95 -77 -146.5t-136 -51.5q-68 0 -122.5 38.5t-78.5 114.5z" />
<glyph unicode="&#xdd;" horiz-adv-x="1064" d="M-276 -248q0 79 26 143t68 108t109 81.5t134 61t158 47.5q12 73 12 149q0 134 -30.5 250.5t-94 194t-147.5 77.5q-28 0 -54 54.5t-26 111.5q0 24 9 54.5t28.5 64t47 61.5t69.5 46t90 18q101 0 183.5 -46.5t138 -129.5t91 -187t52.5 -229q119 284 139 582q65 0 129.5 -11 t124 -34.5t96.5 -66.5t37 -99q0 -118 -41.5 -234.5t-111 -212t-142 -169t-153.5 -134.5q103 30 184 64.5t160 85t137 121t92 159.5q87 0 134.5 -44t47.5 -134q0 -66 -20 -125t-53.5 -106t-86 -88.5t-107 -73t-127 -59.5t-137 -48t-146 -38.5t-144.5 -30.5t-141 -25 q-102 -184 -237 -305t-247 -121q-105 0 -178 60.5t-73 156.5zM240 1503q55 0 113.5 24.5t104 59.5t84 70t67 59.5t40.5 24.5q101 0 167.5 -70.5t66.5 -140.5q0 -60 -54.5 -104.5t-135 -65.5t-169.5 -21q-110 0 -189 33t-89 96z" />
<glyph unicode="&#xde;" horiz-adv-x="1169" d="M-2 59q0 44 182 736q-94 48 -94 196q0 92 53 161t115 69q3 -15 35 -25q50 180 55 188q17 31 76 40.5t166 9.5q34 0 58 -16t35.5 -40.5t16 -45.5t4.5 -38q-7 -22 -30 -127h20q110 0 192.5 -24t132.5 -63t81 -97.5t42 -119t11 -134.5q0 -241 -147.5 -388.5t-397.5 -147.5 q-59 0 -145 14q-39 -180 -39 -187q-3 -27 -80 -48t-182 -21q-72 0 -116 35t-44 73zM516 477q199 15 199 156q0 138 -133 143q-24 -120 -66 -299z" />
<glyph unicode="&#xdf;" horiz-adv-x="1247" d="M-61 -229q0 77 10 174.5t31 210t51.5 230.5t73.5 236.5t94.5 227t118 202.5t139.5 163.5t163.5 109t186.5 39.5q101 0 177.5 -23.5t118 -57.5t67 -81.5t33 -86.5t7.5 -81q0 -215 -166 -424q53 -53 78 -116t25 -162q0 -154 -107 -250t-284 -96q-114 0 -174 37t-60 129 q0 23 10 65q70 6 112 39t42 88q0 34 -28.5 114.5t-28.5 125.5q0 29 28 68.5t62 73.5t62 82t28 91q0 59 -37 59q-31 0 -63 -35t-61.5 -98.5t-57 -142t-53 -177.5t-47 -192t-42.5 -197.5t-36 -182.5t-30 -158.5t-22 -114.5q-103 -43 -258 -43q-77 0 -120 42t-43 112z" />
<glyph unicode="&#xe0;" horiz-adv-x="1343" d="M0 340q0 111 40 217.5t112 192t182 138t239 52.5q155 0 242 -90q72 55 143 55q87 0 155.5 -41.5t68.5 -105.5q-32 -35 -73.5 -167.5t-41.5 -232.5q0 -51 45 -51q67 0 150 66.5t147 162t88 181.5q209 0 209 -189q0 -48 -23.5 -107.5t-66.5 -123.5t-109.5 -124t-145 -108 t-180.5 -77t-210 -29q-198 0 -287 119q-52 -55 -131 -87t-164 -32q-190 0 -289.5 99t-99.5 282zM406 1219q12 70 74.5 130t156.5 60q12 0 40.5 -24.5t67.5 -59.5t84.5 -70t104 -59.5t113.5 -24.5l-7 -34q-7 -42 -48.5 -72t-100.5 -43.5t-129 -13.5q-95 0 -178.5 23.5 t-136 73t-41.5 114.5zM451 403q0 -118 84 -118q32 0 77 20v37q0 132 52 274q-21 7 -48 7q-70 0 -117.5 -70t-47.5 -150z" />
<glyph unicode="&#xe1;" horiz-adv-x="1343" d="M0 340q0 111 40 217.5t112 192t182 138t239 52.5q155 0 242 -90q72 55 143 55q87 0 155.5 -41.5t68.5 -105.5q-32 -35 -73.5 -167.5t-41.5 -232.5q0 -51 45 -51q67 0 150 66.5t147 162t88 181.5q209 0 209 -189q0 -48 -23.5 -107.5t-66.5 -123.5t-109.5 -124t-145 -108 t-180.5 -77t-210 -29q-198 0 -287 119q-52 -55 -131 -87t-164 -32q-190 0 -289.5 99t-99.5 282zM451 403q0 -118 84 -118q32 0 77 20v37q0 132 52 274q-21 7 -48 7q-70 0 -117.5 -70t-47.5 -150zM457 1171q55 0 113.5 24.5t104 59.5t84 70t67 59.5t40.5 24.5 q101 0 167.5 -70.5t66.5 -140.5q0 -60 -55 -104.5t-135 -65t-169 -20.5q-110 0 -189 33t-89 96z" />
<glyph unicode="&#xe2;" horiz-adv-x="1343" d="M0 340q0 111 40 217.5t112 192t182 138t239 52.5q155 0 242 -90q72 55 143 55q87 0 155.5 -41.5t68.5 -105.5q-32 -35 -73.5 -167.5t-41.5 -232.5q0 -51 45 -51q67 0 150 66.5t147 162t88 181.5q209 0 209 -189q0 -48 -23.5 -107.5t-66.5 -123.5t-109.5 -124t-145 -108 t-180.5 -77t-210 -29q-198 0 -287 119q-52 -55 -131 -87t-164 -32q-190 0 -289.5 99t-99.5 282zM373 1159q62 27 130.5 68t133.5 101.5t74 111.5q90 28 133 28q56 0 95.5 -23.5t59.5 -58.5t38.5 -76.5t33.5 -76.5t44.5 -58.5t70.5 -23.5q-18 -73 -90 -113.5t-166 -40.5 q-65 0 -109.5 33t-50.5 98q-40 -60 -110.5 -96.5t-139.5 -36.5q-147 0 -147 164zM451 403q0 -118 84 -118q32 0 77 20v37q0 132 52 274q-21 7 -48 7q-70 0 -117.5 -70t-47.5 -150z" />
<glyph unicode="&#xe3;" horiz-adv-x="1343" d="M0 340q0 111 40 217.5t112 192t182 138t239 52.5q155 0 242 -90q72 55 143 55q87 0 155.5 -41.5t68.5 -105.5q-32 -35 -73.5 -167.5t-41.5 -232.5q0 -51 45 -51q67 0 150 66.5t147 162t88 181.5q209 0 209 -189q0 -48 -23.5 -107.5t-66.5 -123.5t-109.5 -124t-145 -108 t-180.5 -77t-210 -29q-198 0 -287 119q-52 -55 -131 -87t-164 -32q-190 0 -289.5 99t-99.5 282zM379 1106q0 256 260 256q50 0 167 -28.5t181 -28.5q137 0 207 49q4 -36 4 -54q0 -146 -75.5 -206t-213.5 -60q-61 0 -169 26.5t-152 26.5q-53 0 -109.5 -13.5t-91.5 -35.5 q-8 27 -8 68zM451 403q0 -118 84 -118q32 0 77 20v37q0 132 52 274q-21 7 -48 7q-70 0 -117.5 -70t-47.5 -150z" />
<glyph unicode="&#xe4;" horiz-adv-x="1343" d="M0 340q0 111 40 217.5t112 192t182 138t239 52.5q155 0 242 -90q72 55 143 55q87 0 155.5 -41.5t68.5 -105.5q-32 -35 -73.5 -167.5t-41.5 -232.5q0 -51 45 -51q67 0 150 66.5t147 162t88 181.5q209 0 209 -189q0 -48 -23.5 -107.5t-66.5 -123.5t-109.5 -124t-145 -108 t-180.5 -77t-210 -29q-198 0 -287 119q-52 -55 -131 -87t-164 -32q-190 0 -289.5 99t-99.5 282zM315 1143q7 27 25.5 56.5t49.5 60t81.5 50t110.5 19.5q68 0 151 -29q6 -59 -4 -112q-16 -95 -77 -147t-136 -52q-68 0 -122.5 39t-78.5 115zM451 403q0 -118 84 -118 q32 0 77 20v37q0 132 52 274q-21 7 -48 7q-70 0 -117.5 -70t-47.5 -150zM809 1143q7 27 25.5 56.5t49 60t81 50t110.5 19.5q69 0 152 -29q6 -59 -4 -112q-16 -95 -77 -147t-136 -52q-68 0 -122.5 39t-78.5 115z" />
<glyph unicode="&#xe5;" horiz-adv-x="1343" d="M0 340q0 111 40 217.5t112 192t182 138t239 52.5q155 0 242 -90q72 55 143 55q87 0 155.5 -41.5t68.5 -105.5q-32 -35 -73.5 -167.5t-41.5 -232.5q0 -51 45 -51q67 0 150 66.5t147 162t88 181.5q209 0 209 -189q0 -48 -23.5 -107.5t-66.5 -123.5t-109.5 -124t-145 -108 t-180.5 -77t-210 -29q-198 0 -287 119q-52 -55 -131 -87t-164 -32q-190 0 -289.5 99t-99.5 282zM451 403q0 -118 84 -118q32 0 77 20v37q0 132 52 274q-21 7 -48 7q-70 0 -117.5 -70t-47.5 -150zM508 1182q0 38 24.5 83.5t68 87t114.5 69.5t153 28q128 0 209.5 -55 t81.5 -131q0 -102 -87 -180t-187 -83q-56 -20 -111 -20q-108 0 -187 59t-79 142zM799 1186q21 -25 49 -25q22 0 42.5 20t20.5 60q0 35 -47 35q-65 0 -65 -76v-14z" />
<glyph unicode="&#xe6;" horiz-adv-x="1794" d="M0 340q0 111 40 217.5t112 192t182 138t239 52.5q87 0 156.5 -31t106.5 -84q150 115 350 115q226 0 342.5 -93.5t116.5 -234.5q0 -127 -108 -214t-292 -87q-67 0 -106 28.5t-39 72.5q0 30 14 51q42 0 72.5 21t30.5 53q0 43 -50 43q-51 0 -84.5 -48.5t-33.5 -123.5 q0 -70 49.5 -111t156.5 -41q239 0 422.5 132t270.5 343q95 0 153 -43t58 -125q0 -68 -28 -139t-82 -140t-139.5 -129.5t-192.5 -106.5t-250 -72.5t-304 -26.5q-320 0 -461 153q-49 -66 -134 -104.5t-179 -38.5q-190 0 -289.5 99t-99.5 282zM451 403q0 -118 84 -118 q28 0 77 18q-4 23 -4 70q0 130 58 243q-25 7 -50 7q-70 0 -117.5 -70t-47.5 -150z" />
<glyph unicode="&#xe7;" horiz-adv-x="1142" d="M-20 -256q16 80 90 160q29 -13 94.5 -29t118.5 -16q82 0 90 45q2 8 2 59q-375 67 -375 410q0 110 42 211.5t118.5 181t193.5 127t256 47.5q189 0 287 -66.5t98 -177.5q0 -105 -72.5 -172t-193.5 -67q-20 0 -38 9.5t-30.5 21t-36 21t-53.5 9.5q-39 0 -63.5 -31.5 t-24.5 -72.5q0 -48 46 -90.5t137 -42.5q215 0 374 116t258 334q94 0 152.5 -42.5t58.5 -129.5q0 -44 -15 -95.5t-49 -109.5t-83 -113.5t-123.5 -107t-163.5 -91t-209 -65t-256 -28.5q0 -27 -6 -62q-28 -155 -132 -244t-236 -89t-201.5 49.5t-54.5 140.5z" />
<glyph unicode="&#xe8;" horiz-adv-x="1181" d="M-4 373q0 107 42.5 209.5t116.5 181.5t183.5 127.5t234.5 48.5q226 0 342.5 -93.5t116.5 -234.5q0 -127 -107.5 -214t-291.5 -87q-67 0 -106.5 28.5t-39.5 72.5q0 28 15 51q42 0 72 21t30 53q0 43 -49 43q-51 0 -85 -48.5t-34 -123.5q0 -70 50 -111t157 -41 q239 0 422 132t270 343q95 0 153 -43t58 -125q0 -83 -39 -167.5t-121 -165t-197 -143t-280.5 -100.5t-357.5 -38q-262 0 -408.5 108.5t-146.5 315.5zM246 1219q12 70 74.5 130t156.5 60q12 0 40.5 -24.5t67.5 -59.5t84.5 -70t104 -59.5t113.5 -24.5l-6 -34q-7 -42 -48.5 -72 t-101 -43.5t-129.5 -13.5q-95 0 -178.5 23.5t-136 73t-41.5 114.5z" />
<glyph unicode="&#xe9;" horiz-adv-x="1181" d="M-4 373q0 107 42.5 209.5t116.5 181.5t183.5 127.5t234.5 48.5q226 0 342.5 -93.5t116.5 -234.5q0 -127 -107.5 -214t-291.5 -87q-67 0 -106.5 28.5t-39.5 72.5q0 28 15 51q42 0 72 21t30 53q0 43 -49 43q-51 0 -85 -48.5t-34 -123.5q0 -70 50 -111t157 -41 q239 0 422 132t270 343q95 0 153 -43t58 -125q0 -83 -39 -167.5t-121 -165t-197 -143t-280.5 -100.5t-357.5 -38q-262 0 -408.5 108.5t-146.5 315.5zM324 1171q55 0 113.5 24.5t104 59.5t84 70t67 59.5t40.5 24.5q101 0 167.5 -70.5t66.5 -140.5q0 -60 -55 -104.5t-135 -65 t-169 -20.5q-110 0 -189 33t-89 96z" />
<glyph unicode="&#xea;" horiz-adv-x="1181" d="M-4 373q0 107 42.5 209.5t116.5 181.5t183.5 127.5t234.5 48.5q226 0 342.5 -93.5t116.5 -234.5q0 -127 -107.5 -214t-291.5 -87q-67 0 -106.5 28.5t-39.5 72.5q0 28 15 51q42 0 72 21t30 53q0 43 -49 43q-51 0 -85 -48.5t-34 -123.5q0 -70 50 -111t157 -41 q239 0 422 132t270 343q95 0 153 -43t58 -125q0 -83 -39 -167.5t-121 -165t-197 -143t-280.5 -100.5t-357.5 -38q-262 0 -408.5 108.5t-146.5 315.5zM233 1147q62 27 130.5 67.5t133.5 101t74 111.5q93 29 134 29q56 0 95.5 -23.5t59.5 -58.5t38.5 -76.5t33.5 -76.5 t44.5 -58.5t70.5 -23.5q-18 -73 -90 -113.5t-166 -40.5q-65 0 -109.5 33t-50.5 98q-40 -60 -110.5 -96.5t-139.5 -36.5t-108.5 40t-39.5 124z" />
<glyph unicode="&#xeb;" horiz-adv-x="1181" d="M-4 373q0 107 42.5 209.5t116.5 181.5t183.5 127.5t234.5 48.5q226 0 342.5 -93.5t116.5 -234.5q0 -127 -107.5 -214t-291.5 -87q-67 0 -106.5 28.5t-39.5 72.5q0 28 15 51q42 0 72 21t30 53q0 43 -49 43q-51 0 -85 -48.5t-34 -123.5q0 -70 50 -111t157 -41 q239 0 422 132t270 343q95 0 153 -43t58 -125q0 -83 -39 -167.5t-121 -165t-197 -143t-280.5 -100.5t-357.5 -38q-262 0 -408.5 108.5t-146.5 315.5zM156 1161q7 27 25.5 56.5t49 60t81 50.5t110.5 20q68 0 151 -29q6 -59 -4 -113q-16 -95 -77 -146.5t-136 -51.5 q-68 0 -122 38.5t-78 114.5zM649 1161q7 27 25.5 56.5t49 60t81 50.5t110.5 20q69 0 152 -29q6 -59 -4 -113q-16 -95 -77 -146.5t-136 -51.5q-68 0 -122.5 38.5t-78.5 114.5z" />
<glyph unicode="&#xec;" horiz-adv-x="772" d="M4 319q0 -174 96.5 -267t280.5 -93q108 0 210.5 29t181 77t144.5 108t109 124t66.5 123.5t23.5 107.5q0 189 -209 189q-23 -85 -92 -181t-156.5 -162.5t-156.5 -66.5q-45 0 -45 45q0 76 39.5 203t91.5 248q0 31 -9.5 54t-34.5 42.5t-74 30t-122 10.5q-96 0 -164 -45 t-106.5 -130.5t-56 -194.5t-17.5 -251zM121 1219q12 70 74.5 130t156.5 60q12 0 40.5 -24.5t67.5 -59.5t84.5 -70t104 -59.5t113.5 -24.5l-6 -34q-7 -42 -48.5 -72t-101 -43.5t-129.5 -13.5q-95 0 -178.5 23.5t-136 73t-41.5 114.5z" />
<glyph unicode="&#xed;" horiz-adv-x="772" d="M4 319q0 142 17.5 251t56 194.5t106.5 130.5t164 45q73 0 122 -10.5t74 -30t34.5 -42.5t9.5 -54q-52 -121 -91.5 -248t-39.5 -203q0 -45 45 -45q69 0 156.5 66.5t156.5 162.5t92 181q209 0 209 -189q0 -48 -23.5 -107.5t-66.5 -123.5t-109 -124t-144.5 -108t-181 -77 t-210.5 -29q-184 0 -280.5 93t-96.5 267zM154 1171q55 0 113.5 24.5t104 59.5t84 70t67 59.5t40.5 24.5q101 0 167.5 -70.5t66.5 -140.5q0 -60 -55 -104.5t-135 -65t-169 -20.5q-110 0 -189 33t-89 96z" />
<glyph unicode="&#xee;" horiz-adv-x="772" d="M4 319q0 -174 96.5 -267t280.5 -93q108 0 210.5 29t181 77t144.5 108t109 124t66.5 123.5t23.5 107.5q0 189 -209 189q-23 -85 -92 -181t-156.5 -162.5t-156.5 -66.5q-45 0 -45 45q0 76 39.5 203t91.5 248q0 31 -9.5 54t-34.5 42.5t-74 30t-122 10.5q-96 0 -164 -45 t-106.5 -130.5t-56 -194.5t-17.5 -251zM47 1169q62 27 130.5 68t133.5 101.5t74 111.5q93 29 133 29q66 0 109 -33t64 -79.5t39.5 -93t49.5 -79.5t80 -33q-18 -72 -89.5 -112.5t-166.5 -40.5q-65 0 -109.5 33t-50.5 98q-40 -60 -110 -96.5t-139 -36.5q-148 0 -148 163z" />
<glyph unicode="&#xef;" horiz-adv-x="772" d="M-29 1135q7 27 25.5 56.5t49.5 60t81.5 50t110.5 19.5q68 0 151 -29q6 -59 -4 -112q-16 -95 -77 -147t-136 -52q-68 0 -122.5 39t-78.5 115zM4 319q0 -174 96.5 -267t280.5 -93q108 0 210.5 29t181 77t144.5 108t109 124t66.5 123.5t23.5 107.5q0 189 -209 189 q-23 -85 -92 -181t-156.5 -162.5t-156.5 -66.5q-45 0 -45 45q0 76 39.5 203t91.5 248q0 31 -9.5 54t-34.5 42.5t-74 30t-122 10.5q-96 0 -164 -45t-106.5 -130.5t-56 -194.5t-17.5 -251zM465 1135q7 27 25.5 56.5t49 60t81 50t110.5 19.5q69 0 152 -29q6 -59 -4 -112 q-16 -95 -77 -147t-136 -52q-68 0 -122.5 39t-78.5 115z" />
<glyph unicode="&#xf0;" horiz-adv-x="1159" d="M10 387q0 96 41.5 183.5t104.5 146t136.5 93t139.5 34.5q115 0 195 -62q-19 97 -64 172q-119 -60 -157 -63q-16 8 -48 56.5t-32 82.5q0 23 80 96q-56 44 -127 86q0 38 13.5 74.5t41.5 69t79 52t119 19.5q106 0 197 -51q88 58 109 58q84 0 125 -53t41 -136q0 -22 -66 -74 q71 -114 110 -256.5t39 -283.5q0 -309 -169 -479t-480 -170q-109 0 -207 52t-159.5 146t-61.5 207zM461 428q0 -57 21 -98t55 -41q48 0 81 51t33 137v51q-47 29 -84 29q-46 0 -76 -34t-30 -95z" />
<glyph unicode="&#xf1;" horiz-adv-x="1425" d="M-68 150q0 66 84 349t84 345q22 36 92 66t132 30q191 0 241 -143q193 145 396 145q110 0 174.5 -54t64.5 -159q0 -57 -44 -198t-44 -171q0 -53 55 -53q88 0 189.5 101t189.5 309q108 0 158.5 -45.5t50.5 -143.5q0 -140 -116 -275t-292 -217.5t-348 -82.5 q-193 0 -279.5 62.5t-86.5 168.5q0 71 25.5 174.5t25.5 124.5q0 56 -39 56q-38 0 -106 -56q-15 -64 -49 -216t-50 -220q-21 -38 -91.5 -60t-131.5 -22q-285 0 -285 185zM293 1073q0 256 260 256q50 0 167 -28.5t181 -28.5q137 0 207 49q4 -36 4 -53q0 -146 -76 -206.5 t-213 -60.5q-61 0 -169 27t-152 27q-53 0 -109.5 -13.5t-91.5 -35.5q-8 27 -8 67z" />
<glyph unicode="&#xf2;" horiz-adv-x="1249" d="M6 373q0 -111 47.5 -193.5t134.5 -131.5t201 -73t256 -24q167 0 323 33.5t276.5 92.5t211 135t138.5 164.5t48 178.5q0 84 -57 122t-149 38q-68 -152 -162 -248.5t-225 -147.5q45 106 45 224q0 55 -13.5 107.5t-49 106.5t-90 94t-143.5 65.5t-202 25.5t-219.5 -42 t-188.5 -115t-132 -181t-50 -231zM317 1219q12 70 75 130t157 60q12 0 40.5 -24.5t67 -59.5t84 -70t104 -59.5t113.5 -24.5l-6 -34q-7 -42 -48.5 -72t-100.5 -43.5t-129 -13.5q-95 0 -178.5 23.5t-136.5 73t-42 114.5zM457 426q0 70 30 105.5t74 35.5q34 0 63 -24.5 t29 -73.5q0 -98 -84 -193q-112 35 -112 150z" />
<glyph unicode="&#xf3;" horiz-adv-x="1249" d="M6 373q0 123 50 231t132 181t188.5 115t219.5 42t202 -25.5t143.5 -65.5t90 -94t49 -106.5t13.5 -107.5q0 -118 -45 -224q131 51 225 147.5t162 248.5q92 0 149 -38t57 -122q0 -90 -48 -178.5t-138.5 -164.5t-211 -135t-276.5 -92.5t-323 -33.5q-142 0 -256 24t-201 73 t-134.5 131.5t-47.5 193.5zM354 1171q55 0 113.5 24.5t104 59.5t84.5 70t67.5 59.5t40.5 24.5q101 0 167 -70.5t66 -140.5q0 -60 -54.5 -104.5t-134.5 -65t-169 -20.5q-110 0 -189.5 33t-89.5 96zM457 426q0 -115 112 -150q84 95 84 193q0 49 -29 73.5t-63 24.5 q-44 0 -74 -35.5t-30 -105.5z" />
<glyph unicode="&#xf4;" horiz-adv-x="1249" d="M6 373q0 -111 47.5 -193.5t134.5 -131.5t201 -73t256 -24q167 0 323 33.5t276.5 92.5t211 135t138.5 164.5t48 178.5q0 84 -57 122t-149 38q-68 -152 -162 -248.5t-225 -147.5q45 106 45 224q0 55 -13.5 107.5t-49 106.5t-90 94t-143.5 65.5t-202 25.5t-219.5 -42 t-188.5 -115t-132 -181t-50 -231zM268 1151q62 27 130.5 68t133.5 101.5t74 111.5q90 28 133 28q56 0 95.5 -23.5t59.5 -58.5t38.5 -76.5t33.5 -76.5t44.5 -58.5t70.5 -23.5q-18 -73 -90 -113.5t-166 -40.5q-65 0 -109 33t-50 98q-40 -60 -110.5 -96.5t-139.5 -36.5 t-108.5 40t-39.5 124zM457 426q0 70 30 105.5t74 35.5q34 0 63 -24.5t29 -73.5q0 -98 -84 -193q-112 35 -112 150z" />
<glyph unicode="&#xf5;" horiz-adv-x="1249" d="M6 373q0 -111 47.5 -193.5t134.5 -131.5t201 -73t256 -24q167 0 323 33.5t276.5 92.5t211 135t138.5 164.5t48 178.5q0 84 -57 122t-149 38q-68 -152 -162 -248.5t-225 -147.5q45 106 45 224q0 55 -13.5 107.5t-49 106.5t-90 94t-143.5 65.5t-202 25.5t-219.5 -42 t-188.5 -115t-132 -181t-50 -231zM313 1065q0 256 260 256q50 0 167.5 -28.5t181.5 -28.5q136 0 206 49q5 -45 5 -53q0 -146 -76 -206.5t-213 -60.5q-61 0 -169.5 27t-152.5 27q-52 0 -108.5 -14t-91.5 -36q-9 30 -9 68zM457 426q0 70 30 105.5t74 35.5q34 0 63 -24.5 t29 -73.5q0 -98 -84 -193q-112 35 -112 150z" />
<glyph unicode="&#xf6;" horiz-adv-x="1249" d="M6 373q0 -111 47.5 -193.5t134.5 -131.5t201 -73t256 -24q167 0 323 33.5t276.5 92.5t211 135t138.5 164.5t48 178.5q0 84 -57 122t-149 38q-68 -152 -162 -248.5t-225 -147.5q45 106 45 224q0 55 -13.5 107.5t-49 106.5t-90 94t-143.5 65.5t-202 25.5t-219.5 -42 t-188.5 -115t-132 -181t-50 -231zM223 1135q7 27 25.5 56.5t49 60t81 50t110.5 19.5q69 0 152 -29q6 -59 -4 -112q-16 -95 -77 -147t-136 -52q-68 0 -122.5 39t-78.5 115zM457 426q0 70 30 105.5t74 35.5q34 0 63 -24.5t29 -73.5q0 -98 -84 -193q-112 35 -112 150zM717 1135 q7 27 25.5 56.5t49 60t81 50t110.5 19.5q69 0 152 -29q5 -55 -5 -112q-16 -95 -76.5 -147t-135.5 -52q-68 0 -122.5 39t-78.5 115z" />
<glyph unicode="&#xf7;" horiz-adv-x="952" d="M119 451q0 39 13 66.5t35 44t59 25.5t76.5 12t96.5 3q75 0 228 1t194 1q59 0 97 -21.5t38 -68.5q0 -104 -47 -172q-92 6 -159 6q-70 0 -229 -4t-273 -4q-61 0 -95 29t-34 82zM336 82q0 83 59 130.5t152 47.5q39 0 59 -4q64 -26 64 -106q0 -92 -46.5 -148.5t-142.5 -56.5 q-71 0 -108 37.5t-37 99.5zM438 823q0 83 59 130.5t152 47.5q40 0 60 -4q63 -26 63 -106q0 -93 -46 -149t-142 -56q-71 0 -108.5 37.5t-37.5 99.5z" />
<glyph unicode="&#xf8;" horiz-adv-x="1249" d="M6 373q0 123 50 231t132 181t188.5 115t219.5 42q60 0 109 -6q69 97 102 164q132 -24 190 -61.5t58 -94.5q0 -63 -47 -153q86 -104 86 -248q0 -118 -45 -224q131 51 225 147.5t162 248.5q92 0 149 -38t57 -122q0 -90 -48 -178.5t-138.5 -164.5t-211 -135t-276.5 -92.5 t-323 -33.5q-101 0 -190 12q-82 -121 -93 -168q-122 0 -181.5 46.5t-59.5 113.5q0 57 26 119q-141 107 -141 299zM457 426q0 -115 112 -150q84 95 84 193q0 49 -29 73.5t-63 24.5q-44 0 -74 -35.5t-30 -105.5z" />
<glyph unicode="&#xf9;" horiz-adv-x="1388" d="M-6 324q0 -194 83 -281.5t296 -87.5q79 0 170.5 29t156.5 69q98 -94 297 -94q129 0 249 41t206 105.5t151 141t97.5 150t32.5 131.5q0 189 -209 189q-24 -86 -91.5 -186.5t-155 -172t-155.5 -71.5q-45 0 -45 45t35 127.5t70 172.5t35 154q0 164 -232 164q-68 0 -174 -32 q-84 -133 -139 -302t-56 -315q-28 -8 -47 -8q-35 0 -54 25.5t-19 64.5q0 78 41 233t41 170q0 29 -5 52t-20.5 45.5t-40 37.5t-66.5 24t-98 9q-93 0 -176 -36q-71 -105 -124.5 -270t-53.5 -324zM354 1219q12 70 75 130t157 60q12 0 40.5 -24.5t67 -59.5t84 -70t104 -59.5 t113.5 -24.5l-6 -34q-7 -42 -48.5 -72t-100.5 -43.5t-129 -13.5q-95 0 -178.5 23.5t-136.5 73t-42 114.5z" />
<glyph unicode="&#xfa;" horiz-adv-x="1388" d="M-6 324q0 159 53.5 324t124.5 270q83 36 176 36q56 0 98 -9t66.5 -24t40 -37.5t20.5 -45.5t5 -52q0 -15 -41 -170t-41 -233q0 -39 19 -64.5t54 -25.5q19 0 47 8q1 146 56 315t139 302q106 32 174 32q232 0 232 -164q0 -64 -35 -154t-70 -172.5t-35 -127.5t45 -45 q68 0 155.5 71.5t155 172t91.5 186.5q209 0 209 -189q0 -58 -32.5 -131.5t-97.5 -150t-151 -141t-206 -105.5t-249 -41q-199 0 -297 94q-65 -40 -156.5 -69t-170.5 -29q-213 0 -296 87.5t-83 281.5zM438 1171q55 0 113.5 24.5t104 59.5t84.5 70t67.5 59.5t40.5 24.5 q101 0 167 -70.5t66 -140.5q0 -60 -54.5 -104.5t-134.5 -65t-169 -20.5q-110 0 -189.5 33t-89.5 96z" />
<glyph unicode="&#xfb;" horiz-adv-x="1388" d="M-6 324q0 -194 83 -281.5t296 -87.5q79 0 170.5 29t156.5 69q98 -94 297 -94q129 0 249 41t206 105.5t151 141t97.5 150t32.5 131.5q0 189 -209 189q-24 -86 -91.5 -186.5t-155 -172t-155.5 -71.5q-45 0 -45 45t35 127.5t70 172.5t35 154q0 164 -232 164q-68 0 -174 -32 q-84 -133 -139 -302t-56 -315q-28 -8 -47 -8q-35 0 -54 25.5t-19 64.5q0 78 41 233t41 170q0 29 -5 52t-20.5 45.5t-40 37.5t-66.5 24t-98 9q-93 0 -176 -36q-71 -105 -124.5 -270t-53.5 -324zM328 1165q62 27 130.5 68t133.5 101.5t74 111.5q93 29 133 29q66 0 109 -33 t64 -79.5t39.5 -93t49.5 -79.5t80 -33q-18 -72 -89.5 -112.5t-166.5 -40.5q-65 0 -109.5 33t-50.5 98q-40 -60 -110.5 -97t-139.5 -37q-147 0 -147 164z" />
<glyph unicode="&#xfc;" horiz-adv-x="1388" d="M-6 324q0 -194 83 -281.5t296 -87.5q79 0 170.5 29t156.5 69q98 -94 297 -94q129 0 249 41t206 105.5t151 141t97.5 150t32.5 131.5q0 189 -209 189q-24 -86 -91.5 -186.5t-155 -172t-155.5 -71.5q-45 0 -45 45t35 127.5t70 172.5t35 154q0 164 -232 164q-68 0 -174 -32 q-84 -133 -139 -302t-56 -315q-28 -8 -47 -8q-35 0 -54 25.5t-19 64.5q0 78 41 233t41 170q0 29 -5 52t-20.5 45.5t-40 37.5t-66.5 24t-98 9q-93 0 -176 -36q-71 -105 -124.5 -270t-53.5 -324zM289 1155q7 27 25.5 56.5t49 60t81 50t110.5 19.5q72 0 152 -28q5 -56 -5 -113 q-16 -95 -77 -147t-136 -52q-68 0 -122 39t-78 115zM782 1155q7 27 25.5 56.5t49.5 60t81.5 50t110.5 19.5q71 0 151 -28q6 -59 -4 -113q-16 -95 -77 -147t-136 -52q-68 0 -122.5 39t-78.5 115z" />
<glyph unicode="&#xfd;" horiz-adv-x="1286" d="M23 354q0 269 206 578q48 22 131 22q64 0 109 -13t69 -36.5t34.5 -43t17.5 -44.5q-7 -30 -30 -98t-39.5 -135t-16.5 -127q0 -39 19.5 -64.5t54.5 -25.5q24 0 43 8q109 400 217 522q56 37 170 37q93 0 144.5 -31.5t53.5 -64.5q-5 -16 -55.5 -225t-97.5 -359 q166 84 279 193.5t163 267.5q209 0 209 -189q0 -93 -47.5 -180t-124.5 -155.5t-183.5 -129.5t-215 -104t-228.5 -78q-201 -401 -463 -401q-117 0 -176 52t-59 130q0 128 83.5 214.5t239.5 158.5l17 59q-116 -72 -223 -72q-70 0 -124 19.5t-87 51t-53.5 76.5t-28.5 90t-8 97z M446 1171q55 0 113.5 24.5t104 59.5t84.5 70t67.5 59.5t40.5 24.5q101 0 167.5 -70.5t66.5 -140.5q0 -60 -55 -104.5t-135 -65t-169 -20.5q-110 0 -189 33t-89 96z" />
<glyph unicode="&#xfe;" d="M-195 -270q0 99 110 475t228 723t158 438q52 24 137 41.5t166 17.5q27 0 53.5 -9t49 -35t22.5 -66q0 -59 -123 -447q148 74 275 74q103 0 168 -72.5t65 -222.5q0 -179 -125 -358q152 87 261 198.5t167 229.5q61 0 107 -21t69.5 -53.5t34 -63.5t10.5 -59q0 -88 -61 -177.5 t-168.5 -164t-244 -133.5t-298.5 -92t-321 -33q-144 0 -236 25q-72 -230 -92 -305q-79 -29 -233 -29q-26 0 -53.5 5t-57.5 17t-49 37.5t-19 59.5zM420 285q16 -31 55 -31q73 0 120.5 83.5t47.5 170.5q0 117 -65 117q-27 0 -54 -17z" />
<glyph unicode="&#xff;" horiz-adv-x="1286" d="M23 354q0 269 206 578q48 22 131 22q64 0 109 -13t69 -36.5t34.5 -43t17.5 -44.5q-7 -30 -30 -98t-39.5 -135t-16.5 -127q0 -39 19.5 -64.5t54.5 -25.5q24 0 43 8q109 400 217 522q56 37 170 37q93 0 144.5 -31.5t53.5 -64.5q-5 -16 -55.5 -225t-97.5 -359 q166 84 279 193.5t163 267.5q209 0 209 -189q0 -93 -47.5 -180t-124.5 -155.5t-183.5 -129.5t-215 -104t-228.5 -78q-201 -401 -463 -401q-117 0 -176 52t-59 130q0 128 83.5 214.5t239.5 158.5l17 59q-116 -72 -223 -72q-70 0 -124 19.5t-87 51t-53.5 76.5t-28.5 90t-8 97z M297 1145q7 27 25.5 56.5t49 60t81 50t110.5 19.5q72 0 152 -28q6 -59 -4 -113q-16 -95 -77 -147t-136 -52q-68 0 -122.5 39t-78.5 115zM791 1145q7 27 25.5 56.5t49 60t81 50t110.5 19.5q71 0 151 -28q6 -59 -4 -113q-16 -95 -77 -147t-136 -52q-68 0 -122 39t-78 115z" />
<glyph unicode="&#x152;" horiz-adv-x="1628" d="M10 432q0 151 62.5 303.5t165 271t244.5 193t290 74.5q142 0 260 -70q134 64 289 64q55 0 128 -1t93 -1q46 0 60 2q32 -16 32 -121q0 -65 -10 -128.5t-28 -116.5t-48 -85.5t-67 -32.5q-36 0 -97 11.5t-98 11.5q-60 0 -88.5 -30.5t-28.5 -76.5v-12q50 6 91 6 q61 0 89.5 -24.5t28.5 -53.5q0 -39 -9 -74.5t-28.5 -69.5t-58 -54.5t-90.5 -20.5q-56 0 -102 9q-23 -41 -23 -72q0 -27 22 -40t76 -13q84 0 186 44t187 108.5t149.5 139.5t81.5 136q152 0 152 -150q0 -65 -44 -147.5t-128 -166t-193 -153.5t-253.5 -114t-294.5 -44 q-191 0 -306 74q-107 -71 -215 -71q-59 0 -115.5 10t-125 42t-118.5 83.5t-84 144.5t-34 215zM465 397q0 -43 10.5 -65.5t40.5 -22.5q37 0 93 79.5t98.5 194.5t42.5 203q0 23 -12 38.5t-38 15.5q-29 0 -69.5 -42.5t-77 -106t-62.5 -144.5t-26 -150z" />
<glyph unicode="&#x153;" horiz-adv-x="1841" d="M6 373q0 123 50 231t132 181t188.5 115t219.5 42q208 0 336 -86q136 84 303 84q226 0 342.5 -93.5t116.5 -234.5q0 -127 -108 -214t-292 -87q-67 0 -106 28.5t-39 72.5q0 30 14 51q42 0 72.5 21t30.5 53q0 43 -49 43q-51 0 -85 -48.5t-34 -123.5q0 -70 50 -111t157 -41 q239 0 422 132t270 343q95 0 153 -43t58 -125q0 -68 -28 -139t-82 -140t-139.5 -129.5t-192.5 -106.5t-250 -72.5t-304 -26.5q-231 0 -372 84q-49 -24 -87.5 -39.5t-106.5 -29t-144 -13.5q-70 0 -138 14.5t-133.5 47t-115 80.5t-79.5 120t-30 160zM459 395q0 -51 14.5 -77.5 t52.5 -26.5q56 0 91.5 58.5t35.5 119.5q0 102 -67 102q-43 0 -85 -52.5t-42 -123.5z" />
<glyph unicode="&#x178;" horiz-adv-x="1064" d="M-276 -248q0 79 26 143t68 108t109 81.5t134 61t158 47.5q12 73 12 149q0 134 -30.5 250.5t-94 194t-147.5 77.5q-28 0 -54 54.5t-26 111.5q0 24 9 54.5t28.5 64t47 61.5t69.5 46t90 18q101 0 183.5 -46.5t138 -129.5t91 -187t52.5 -229q119 284 139 582q65 0 129.5 -11 t124 -34.5t96.5 -66.5t37 -99q0 -118 -41.5 -234.5t-111 -212t-142 -169t-153.5 -134.5q103 30 184 64.5t160 85t137 121t92 159.5q87 0 134.5 -44t47.5 -134q0 -66 -20 -125t-53.5 -106t-86 -88.5t-107 -73t-127 -59.5t-137 -48t-146 -38.5t-144.5 -30.5t-141 -25 q-102 -184 -237 -305t-247 -121q-105 0 -178 60.5t-73 156.5zM98 1479q7 27 25.5 56.5t49.5 60t81.5 50t110.5 19.5q68 0 151 -29q6 -59 -4 -112q-16 -95 -77 -147t-136 -52q-68 0 -122.5 39t-78.5 115zM592 1479q7 27 25.5 56.5t49 60t81 50t110.5 19.5q69 0 152 -29 q6 -59 -4 -112q-16 -95 -77 -147t-136 -52q-68 0 -122.5 39t-78.5 115z" />
<glyph unicode="&#x2c6;" horiz-adv-x="1128" d="M313 1106q62 27 130.5 67.5t133.5 101t74 111.5q93 29 133 29q56 0 95.5 -23.5t59.5 -58.5t38.5 -76.5t33.5 -76.5t44.5 -58.5t70.5 -23.5q-18 -73 -90 -113.5t-166 -40.5q-65 0 -109 33t-50 98q-40 -60 -110.5 -96.5t-139.5 -36.5t-108.5 40t-39.5 124z" />
<glyph unicode="&#x2dc;" horiz-adv-x="1040" d="M319 967q0 256 261 256q50 0 167 -29t181 -29q137 0 207 49q4 -36 4 -53q0 -146 -75.5 -206t-213.5 -60q-61 0 -169.5 26.5t-152.5 26.5q-53 0 -109 -13.5t-91 -35.5q-9 30 -9 68z" />
<glyph unicode="&#x2000;" horiz-adv-x="911" />
<glyph unicode="&#x2001;" horiz-adv-x="1823" />
<glyph unicode="&#x2002;" horiz-adv-x="911" />
<glyph unicode="&#x2003;" horiz-adv-x="1823" />
<glyph unicode="&#x2004;" horiz-adv-x="607" />
<glyph unicode="&#x2005;" horiz-adv-x="455" />
<glyph unicode="&#x2006;" horiz-adv-x="303" />
<glyph unicode="&#x2007;" horiz-adv-x="303" />
<glyph unicode="&#x2008;" horiz-adv-x="227" />
<glyph unicode="&#x2009;" horiz-adv-x="364" />
<glyph unicode="&#x200a;" horiz-adv-x="101" />
<glyph unicode="&#x2010;" horiz-adv-x="770" d="M76 494q0 44 14 92q44 7 270.5 19.5t303.5 12.5q22 0 38.5 -35.5t16.5 -90.5q0 -39 -14 -65t-36 -41t-66.5 -22.5t-87.5 -9.5t-116 -2q-323 0 -323 142z" />
<glyph unicode="&#x2011;" horiz-adv-x="770" d="M76 494q0 44 14 92q44 7 270.5 19.5t303.5 12.5q22 0 38.5 -35.5t16.5 -90.5q0 -39 -14 -65t-36 -41t-66.5 -22.5t-87.5 -9.5t-116 -2q-323 0 -323 142z" />
<glyph unicode="&#x2012;" horiz-adv-x="770" d="M76 494q0 44 14 92q44 7 270.5 19.5t303.5 12.5q22 0 38.5 -35.5t16.5 -90.5q0 -39 -14 -65t-36 -41t-66.5 -22.5t-87.5 -9.5t-116 -2q-323 0 -323 142z" />
<glyph unicode="&#x2013;" horiz-adv-x="1024" d="M111 375q0 56 39.5 121t80.5 65q196 25 463 25q128 0 194 -7t95 -24t29 -51q0 -22 -17.5 -77t-44.5 -87h-811q-28 0 -28 35z" />
<glyph unicode="&#x2014;" horiz-adv-x="1818" d="M53 381q0 29 3 58.5t11 65.5t26.5 58.5t45.5 22.5l1626 2q4 -20 4 -53q0 -30 -6 -60q-8 -51 -17.5 -83.5t-15.5 -41.5t-10 -8h-1665q0 6 -1 20t-1 19z" />
<glyph unicode="&#x2018;" horiz-adv-x="722" d="M104 862q0 81 35 154.5t91 123.5t125.5 79.5t138.5 29.5q80 0 115.5 -26.5t35.5 -81.5q0 -33 -2 -41q-74 0 -121 -30.5t-47 -68.5q31 9 62 9q57 0 79.5 -28.5t22.5 -86.5q0 -46 -17.5 -89t-52 -80.5t-96.5 -60t-143 -22.5q-106 0 -166 53t-60 166z" />
<glyph unicode="&#x2019;" horiz-adv-x="731" d="M104 752q0 33 2 41q74 0 121 30t47 68q-28 -8 -61 -8q-57 0 -79.5 28t-22.5 86q0 46 17.5 89t52 80.5t96.5 60t143 22.5q105 0 165 -53t60 -166q0 -81 -35 -154.5t-90.5 -123.5t-125 -79.5t-138.5 -29.5q-80 0 -116 27t-36 82z" />
<glyph unicode="&#x201a;" horiz-adv-x="731" d="M104 -172q0 33 2 41q74 0 121 30t47 68q-28 -8 -61 -8q-57 0 -79.5 28.5t-22.5 86.5q0 46 17.5 89t52 80.5t96.5 60t143 22.5q105 0 165 -53t60 -167q0 -81 -35 -154.5t-90.5 -123.5t-125 -79.5t-138.5 -29.5q-80 0 -116 27t-36 82z" />
<glyph unicode="&#x201c;" horiz-adv-x="1259" d="M104 862q0 81 35 154.5t91 123.5t125.5 79.5t138.5 29.5q80 0 115.5 -26.5t35.5 -81.5q0 -33 -2 -41q-74 0 -121 -30.5t-47 -68.5q31 9 62 9q57 0 79.5 -28.5t22.5 -86.5q0 -46 -17.5 -89t-52 -80.5t-96.5 -60t-143 -22.5q-106 0 -166 53t-60 166zM698 862q0 81 35 154.5 t90.5 123.5t125 79.5t138.5 29.5q80 0 116 -26.5t36 -81.5q0 -33 -2 -41q-74 0 -121 -30.5t-47 -68.5q31 9 61 9q57 0 80 -28.5t23 -86.5q0 -46 -17.5 -89t-52 -80.5t-96.5 -60t-143 -22.5q-106 0 -166 53t-60 166z" />
<glyph unicode="&#x201d;" horiz-adv-x="1259" d="M104 752q0 33 2 41q74 0 121 30t47 68q-28 -8 -61 -8q-57 0 -79.5 28t-22.5 86q0 46 17.5 89t52 80.5t96.5 60t143 22.5q105 0 165 -53t60 -166q0 -81 -35 -154.5t-90.5 -123.5t-125 -79.5t-138.5 -29.5q-80 0 -116 27t-36 82zM698 752q0 33 2 41q74 0 121 30t47 68 q-28 -8 -61 -8q-57 0 -79.5 28t-22.5 86q0 46 17.5 89t52 80.5t96.5 60t143 22.5q105 0 165 -53t60 -166q0 -81 -35 -154.5t-90.5 -123.5t-125 -79.5t-138.5 -29.5q-80 0 -116 27t-36 82z" />
<glyph unicode="&#x201e;" horiz-adv-x="1259" d="M104 -123q0 33 2 41q74 0 121 30t47 68q-28 -8 -61 -8q-57 0 -79.5 28.5t-22.5 86.5q0 46 17.5 89t52 80.5t96.5 60t143 22.5q105 0 165 -53t60 -166q0 -81 -35 -154.5t-90.5 -123.5t-125 -79.5t-138.5 -29.5q-80 0 -116 26.5t-36 81.5zM698 -123q0 33 2 41q74 0 121 30 t47 68q-28 -8 -61 -8q-57 0 -79.5 28.5t-22.5 86.5q0 46 17.5 89t52 80.5t96.5 60t143 22.5q105 0 165 -53t60 -166q0 -81 -35 -154.5t-90.5 -123.5t-125 -79.5t-138.5 -29.5q-80 0 -116 26.5t-36 81.5z" />
<glyph unicode="&#x2022;" horiz-adv-x="811" d="M145 410q0 45 17.5 91.5t54.5 96.5t105 98t159 86q154 -33 240 -120.5t86 -174.5q0 -44 -37 -102.5t-112 -117.5t-166 -89q-148 0 -247.5 67t-99.5 165z" />
<glyph unicode="&#x2026;" horiz-adv-x="2127" d="M115 160q8 32 29 67.5t56.5 72t93 60t126.5 23.5q86 0 174 -35q2 -16 2 -51q0 -152 -75.5 -238t-178.5 -86q-78 0 -140 47.5t-87 139.5zM862 178q0 3 1 9.5t1 9.5q59 92 137 139t156 47q74 0 122 -46.5t48 -133.5q0 -89 -49 -195q-104 -35 -186 -35q-52 0 -93 14t-66 35 t-41.5 49.5t-23 54.5t-6.5 52zM1575 145q41 118 127.5 186t175.5 68q78 0 126 -57t48 -168q0 -49 -8 -98q-152 -90 -266 -90q-48 0 -87 16t-62 41t-36.5 51t-17.5 51z" />
<glyph unicode="&#x202f;" horiz-adv-x="364" />
<glyph unicode="&#x2039;" horiz-adv-x="905" d="M143 438q0 13 4 37q28 21 73.5 73.5t92 105.5t101.5 105t122.5 85t135.5 33q64 0 114.5 -62.5t73.5 -159.5q-174 0 -350 -192q95 -31 141.5 -87.5t46.5 -123.5q0 -98 -85 -176t-205 -78q2 10 2 31q0 46 -27.5 88t-67 76t-78.5 68.5t-66.5 80t-27.5 96.5z" />
<glyph unicode="&#x203a;" horiz-adv-x="794" d="M121 219q173 0 350 193q-95 31 -142.5 87.5t-47.5 123.5q0 97 85.5 175.5t206.5 78.5q-2 -10 -2 -29q0 -47 27.5 -89.5t66.5 -77t77.5 -69.5t66 -81t27.5 -97q0 -23 -2 -35q-28 -21 -73 -73t-91.5 -105t-102 -105t-123 -85t-135.5 -33q-64 0 -114 61.5t-74 159.5z" />
<glyph unicode="&#x205f;" horiz-adv-x="455" />
<glyph unicode="&#x20ac;" horiz-adv-x="1206" d="M-6 428v14q0 70 29 70h71q2 23 10 78h-86v14q0 70 29 70h78q33 118 91.5 219.5t138.5 179.5t186.5 122t226.5 44q141 0 229 -64.5t88 -183.5q0 -66 -18 -118.5t-46 -83.5t-64 -51.5t-68 -28t-62 -7.5q-58 0 -93.5 21.5t-35.5 62.5q0 18 12.5 48t12.5 45q0 10 -5.5 18 t-15.5 8q-24 0 -64.5 -68t-70.5 -163h195q2 -4 2 -19q0 -12 -2 -18q-3 -17 -6.5 -29t-5.5 -15l-2 -3h-203l-13 -78h205q2 -4 2 -18q0 -13 -2 -19q-3 -17 -6.5 -29t-5.5 -15l-2 -3h-193q2 -46 14.5 -83.5t37.5 -37.5q19 0 36 14.5t30 31.5t38.5 31.5t58.5 14.5q15 0 28 -1 t35 -9t37.5 -21t27.5 -40t12 -64q0 -65 -28 -118t-71.5 -86t-100.5 -55t-111 -31t-107 -9q-85 0 -151.5 25t-108.5 66.5t-69.5 99t-38.5 117t-11 126.5v29h-94z" />
<glyph unicode="&#x2122;" horiz-adv-x="1912" d="M209 1038q6 37 25.5 95.5t36 99.5t18.5 41l256 4q78 16 160 16q50 0 83 -10l125 2q42 0 52 -62t-7 -137q-7 -45 -11 -64.5t-13 -31.5t-16.5 -13t-28.5 -1h-127l-43 -238q-22 -138 -33 -159h-364q19 32 45 180q8 45 18 112.5t16 104.5h-180q-22 6 -12 61zM893 571l172 689 q52 22 211 22q152 0 201 -22l30 -328l154 328q47 18 197 18q158 0 198 -18l-71 -689h-345l48 273l-123 -207q-8 -7 -55.5 -15t-90.5 -8q-82 0 -94 31l-25 199l-71 -273h-336z" />
<glyph unicode="&#x25fc;" horiz-adv-x="1003" d="M0 0v1004h1004v-1004h-1004z" />
<glyph unicode="&#xfb01;" horiz-adv-x="1773" d="M-70 463q0 -74 78 -123q-69 -313 -69 -496q0 -68 6 -116t25.5 -96t54.5 -77t94.5 -47t142.5 -18q100 0 194 42.5t168 116t119.5 183t47.5 234.5q144 25 268 102q76 -209 354 -209q108 0 210.5 29t181 77t144.5 108t109 124t66.5 123.5t23.5 107.5q0 189 -209 189 q-23 -85 -92 -181t-156.5 -162.5t-156.5 -66.5q-19 0 -36.5 17t-27.5 47q148 172 148 387q0 39 -9.5 68.5t-33.5 57t-73.5 42t-121.5 14.5q-262 0 -323 -350q-70 -78 -168.5 -134t-196.5 -65q-9 13 -35 43q75 58 134.5 137t93.5 154t56.5 155t30 137t7.5 101q0 72 -36.5 136 t-91.5 104t-116 63t-114 23q-79 0 -160 -74t-152 -201.5t-131 -278.5t-110 -323q-72 0 -84.5 -1t-24.5 -1q-29 -36 -29 -102zM324 -135q0 50 13.5 139.5t43.5 183.5q47 -86 47 -225q0 -53 -18.5 -101t-42.5 -48q-15 0 -29 13t-14 38zM514 682q48 165 195 416 q-45 -296 -195 -416zM1307 1264q0 131 104.5 201.5t308.5 70.5q58 -85 58 -178q0 -130 -65 -209.5t-200 -79.5q-101 0 -153.5 53.5t-52.5 141.5z" />
</font>
</defs>
</svg>
